<svg id="Layer_1" data-name="Layer 1" xmlns="http://www.w3.org/2000/svg" width="8.7in" height="7.5in" viewBox="0 0 629.7 543.1"><title>logo</title><path d="M622.5,375.4A110.8,110.8,0,0,0,603.1,343,122.4,122.4,0,0,0,575,318.9a168.6,168.6,0,0,0-33.4-16.2,189.9,189.9,0,0,0-34.8-9.1,210.5,210.5,0,0,0-33.4-2.9h-267l-20.6,32.5H290.9V543.1H473.4a209.9,209.9,0,0,0,33.4-2.8,189.9,189.9,0,0,0,34.8-9.1A180.5,180.5,0,0,0,575,515a124.9,124.9,0,0,0,28.1-24.1,112.1,112.1,0,0,0,19.4-32.4c4.8-12.3,7.2-26.1,7.2-41.6S627.3,387.6,622.5,375.4Zm-43.3,80.4a86.2,86.2,0,0,1-27,30.5q-17.1,12-40.5,17.7a215,215,0,0,1-50.9,5.7H329.1V323.2H460.8a215,215,0,0,1,50.9,5.7q23.4,5.7,40.5,17.7a85.9,85.9,0,0,1,27,30.4c6.6,12.4,9.9,22.6,9.9,39.9S585.8,443.5,579.2,455.8Z" fill="#fff"/><polygon points="329.1 0 164.6 249.9 0 0 0 318.8 37.8 318.8 37.8 131.1 38.7 131.1 164.6 318.8 290.4 131.1 291.3 131.1 291.3 273.5 329.1 273.5 329.1 0" fill="#fff"/></svg>