<svg xmlns="http://www.w3.org/2000/svg" id="pintrest" width="4.9in" height="4.9in" viewBox="0 0 351 351"><path fill="#fff" d="M175.5 0C78.6 0 0 78.6 0 175.5c0 76.2 48.6 141 116.4 165.3a1.1 1.1 0 0 1-.1-.5 215.7 215.7 0 0 1-2.2-37.7c.8-16.8 5.9-32.6 9.5-48.8 4-17.8 8.4-35.4 12.5-53.2a7.6 7.6 0 0 0-.5-3.9c-5-14.3-5.8-28.5.2-42.6a32.5 32.5 0 0 1 13-15.8c15.7-9.5 32.9-.1 33.3 18.2.2 9.2-2.5 17.8-5 26.5-2.9 10.2-6.3 20.4-8.7 30.8a22.9 22.9 0 0 0 18.9 27.6c14.4 2.4 25.3-3.8 34.2-14.3s14.2-24.8 17.2-39a124.2 124.2 0 0 0 2.5-31.6c-1.2-26.2-16.2-45.5-41.7-52.1-23.8-6.2-46.7-3.5-67.2 10.8-18.2 12.8-27.9 30.8-29.9 52.8a88.7 88.7 0 0 0 .5 17.1 36.6 36.6 0 0 0 9.2 20 9.1 9.1 0 0 1 2.1 9.3c-1.1 3.5-1.9 7.2-2.9 10.9s-4 6.3-8.8 4.2c-14.2-6.3-22.6-17.6-26.7-32-9.1-31.5-2.2-59.8 18.4-84.8 16.7-20.2 38.7-31.3 64.3-35.6 21-3.5 41.7-2.9 61.7 4.9 29.4 11.5 49 32.1 56.8 63.2 2.7 10.7 2.5 21.6 1.5 32.5-1.7 17-5.9 33.3-14.2 48.3-11.4 20.4-27.5 34.9-50.7 40.5-8.5 2.1-17.2 3-25.9 1.3-13-2.6-20.2-7-29.2-17.8-2.7 10.8-5.7 21.3-8 31.9-4.7 21.3-15 39.7-28 56.8a12.4 12.4 0 0 1-2.2 2.8l-.6.4a174.5 174.5 0 0 0 55.8 9.1c96.9 0 175.5-78.6 175.5-175.5S272.4 0 175.5 0z"/><path fill="#fff" d="M117.8 342.4a2.4 2.4 0 0 0 1.9-.5l-3.3-1.1c.3.7.9 1.5 1.4 1.6z"/></svg>