<svg xmlns="http://www.w3.org/2000/svg" width="9.8in" height="7.3in" viewBox="0 0 705.8 528.6"><title>puzzle</title><g id="art"><path d="M176.6,122.1l58,33.5-.3.2c-16.4,9.6-16.3,25.1.3,34.7s43.4,9.6,60.1.1h.2l57.3,33,.6-203.1Z" fill="gray" stroke="#939598" stroke-miterlimit="10" stroke-width="0.67"/><path d="M352.9,20.3h-.1l-.6,203.1.7.4,58-33.4c-16.7-9.7-16.7-25.3,0-34.9s43.7-9.6,60.4,0l58-33.5Z" fill="#bcbec0"/><polygon points="222 152.5 221.8 172.7 238.1 188.1 241.3 171.2 222 152.5" fill="#939598"/><path d="M471.3,135.3l58-33.5L352.9,0,176.6,101.8l58,33.5h-.3c-16.4,9.7-16.3,25.2.3,34.7s43.4,9.7,60.1.2c0-.1.1-.1.2-.2l58,33.5,58-33.5c-16.7-9.6-16.7-25.2,0-34.8S454.6,125.7,471.3,135.3Z" fill="#e0e7ef"/><polygon points="176.6 101.8 176.6 122.1 208.6 140.5 213.9 123.6 176.6 101.8" fill="#939598" stroke="#939598" stroke-miterlimit="10" stroke-width="0.67"/><polygon points="352.9 203.6 352.9 223.9 410.9 190.5 410.9 170.1 352.9 203.6" fill="#bcbec0"/><polygon points="471.3 135.3 471.3 155.6 529.3 122.1 529.3 101.8 471.3 135.3" fill="#bcbec0"/><path d="M353,223.6V203.3l-17.6,10.1L294.9,190c-16.7,9.5-43.5,9.5-60.1-.1s-17.5-44.6-17.5-44.6l-40.6-23.5L.3,223.6,176.7,325.4l58-33.5c16.6,9.6,43.7,9.6,60.3,0,8.2-4.7,12.3-10.8,12.5-17h.1V253.8l-9.8,5a26.1,26.1,0,0,0-2.8-1.7Z" fill="#bcbec0"/><path d="M295,236.7l58-33.4-58.1-33.6c-16.7,9.5-43.5,9.4-60.1-.1s-16.6-25.1-.2-34.7l-57.9-33.5L.3,203.3,176.7,305.1l58-33.5c16.6,9.6,43.7,9.6,60.3,0S311.7,246.4,295,236.7Z" fill="#87a2c3"/><polygon points="0.3 203.3 0.3 223.6 176.7 325.4 176.7 305.1 0.3 203.3" fill="#939598" stroke="#939598" stroke-miterlimit="10" stroke-width="0.67"/><path d="M528.8,122.7,352.5,224.5l58,33.5c16.6-9.6,43.7-9.6,60.3,0s16.7,25.2,0,34.8l58,33.5L705.2,224.5Z" fill="#939598" stroke="#939598" stroke-miterlimit="10" stroke-width="0.67"/><path d="M528.8,102.4l-58,33.5c-16.6-9.7-43.7-9.7-60.3,0s-16.7,25.2,0,34.8l-58,33.5,58,33.5c16.6-9.7,43.7-9.7,60.3,0s16.7,25.2,0,34.8l58,33.5L705.2,204.2Z" fill="#87a2c3"/><polygon points="352.5 204.2 352.5 224.5 410.5 258 410.5 237.7 352.5 204.2" fill="#939598" stroke="#939598" stroke-miterlimit="10" stroke-width="0.67"/><polygon points="470.8 272.5 470.8 292.8 528.8 326.3 528.8 306 470.8 272.5" fill="#939598" stroke="#939598" stroke-miterlimit="10" stroke-width="0.67"/><polygon points="705.2 204.2 705.2 224.5 528.8 326.3 528.8 306 705.2 204.2" fill="#bcbec0"/><polygon points="487.1 355.5 486.7 379.6 472.1 372.7 487.1 355.5" fill="#bcbec0"/><path d="M474.6,372.4c16.7-9.6,16.7-25.2,0-34.8s-43.7-9.7-60.3,0l-58-33.5-58,33.5c16.7,9.6,16.7,25.2,0,34.8s-43.7,9.6-60.4,0l-58,33.5L356.3,507.7,532.6,405.9Z" fill="#e0e7ef"/><polygon points="179.9 405.9 179.9 426.2 356.3 528 356.3 507.7 179.9 405.9" fill="#939598" stroke="#939598" stroke-miterlimit="10" stroke-width="0.67"/><polygon points="532.6 405.9 532.6 426.2 356.3 528 356.3 507.7 532.6 405.9" fill="#bcbec0"/><path d="M298.3,337.6v20.3s5.7,2.1,8.4,7.3a15.2,15.2,0,0,0,1.4-18.8A25.4,25.4,0,0,0,298.3,337.6Z" fill="#939598"/></g></svg>