<svg xmlns="http://www.w3.org/2000/svg"><symbol id="artwork" viewBox="0 0 720 720"><path fill="#aec2da" d="M369.2 554.6c-9.1 0-17.4-4.5-23.2-12.8-8.6-12.4-11.5-26.2-8.3-40.1a182.8 182.8 0 0 1 6.3-20.2c.8-2.1 1.5-4.2 2.2-6.2s2.3-6.5 3.5-9.6c2.1-5.6 4.1-10.9 5.5-16.2a31.9 31.9 0 0 0-1.9-22.6c-26.6 21.1-53.7 41.4-80.7 60.6a10.2 10.2 0 0 1-5.8 1.8 9.9 9.9 0 0 1-7.7-3.6l-28.2-34.3a9.9 9.9 0 0 1 .8-13.6c22.4-21.6 45.8-42.9 69.4-63.4-1.7-2.2-3.9-3.3-7.1-3.7a102 102 0 0 0-11.4-.8l-9.4-.6-2.4-.2c-5.9-.3-18.2-1-22.2-13.8s6.1-20.2 10.4-23.3l2-1.6c4-3.2 8.1-6.3 12.1-9.2s8.3-6.1 12.2-9.3c7.6-6.3 7.6-9.1 6.7-11.9s-3.1-5.2-12.4-6.6l-4.6-.6c-4.6-.5-9.8-1-14.9-3.1a66.8 66.8 0 0 1-19.3-12.4 21.6 21.6 0 0 1-4.6-27.1c3.8-7 12.2-11.7 20.9-11.7a21.5 21.5 0 0 1 6.8 1 70.1 70.1 0 0 1 17.4 8.9c3.7 2.6 7.3 5.3 10.7 7.9s7.4 5.8 11.2 8.3a20.6 20.6 0 0 0 20.4 1.8c4.9-2.1 11-5.8 13-11.8s-.7-11.5-3-15.5c-3.4-5.7-8.1-11-13-16.6-2.4-2.7-4.8-5.4-7.1-8.3l-6.7-8c-5.5-6.4-11.2-13-16-20.4-8-12.1-5.3-28.5 6.1-38.1a30 30 0 0 1 19.2-7 30.7 30.7 0 0 1 18.5 6.2 42.7 42.7 0 0 1 10.6 11 73.9 73.9 0 0 1 12.1 35.8c1 12.2 6.3 23.5 16.7 35.4s17.4 12.5 22.3 12.5 10.9-1.7 17.7-5.1l4.3-2.3 3.5-1.9 1.3-.6c3.5-1.3 5.9-5.4 7-12.2.5-3.1.9-6.3 1.4-9.4.8-5.5 1.6-11.2 2.7-16.8 2.7-14.1 12-23.6 26-26.8a32.3 32.3 0 0 1 6.8-.8c9.9 0 18.9 4.9 24.9 13.4s5.6 19.8-2.7 30.7c-3.3 4.2-6.7 8.2-10 12.1s-5.4 6.4-8 9.7c-4.5 5.7-7.4 11.3-8.6 17 29.8-20.8 60.5-40.9 91.4-59.8l35.9-22.1a13.4 13.4 0 0 1 7.2-2.1 13.7 13.7 0 0 1 12.6 8.4 13.5 13.5 0 0 1-2.5 14.7l-27.9 30.1c-22.6 24.5-46.1 48.6-70 72 6.2-2.1 12.3-4.4 18.7-6.8s10.2-3.9 15.4-5.7a84.7 84.7 0 0 1 18.5-4.6l3.6-.2c15.2 0 27.8 10.8 30.7 26.2 1.9 10.4-1.8 19.6-10.5 25.7a47.1 47.1 0 0 1-27.9 8.6 56.3 56.3 0 0 1-9-.7 155.8 155.8 0 0 0-20.3-1.7 49.6 49.6 0 0 0-18 2.9 241 241 0 0 0-34 16.2q-9.5 5.4-6.9 16.5c4.4 19.5 13 30.4 27.6 35.4a55.7 55.7 0 0 1 6.9 2.8c11.3 5.3 17.2 14.6 16.6 26.1s-6.9 19.9-18.1 25.2a21.7 21.7 0 0 1-9.2 2.1c-6.3 0-12.2-2.8-17.2-8.2s-8.6-9.8-12.6-14.6c-2.8-3.3-5.7-6.8-8.6-10.1l-1.1-1.2a169 169 0 0 0-13.5-14.3c-5.5-4.9-11.1-7.4-16.7-7.4a23.4 23.4 0 0 0-8.7 1.8c-16.8 6.9-19.6 16.4-20.2 23a97.9 97.9 0 0 0 1.3 25.3c1 6.5 2.6 13.1 4.3 19.9s2.8 11.6 4 17.6a115 115 0 0 1 2.1 24.4c-.4 15.9-8.1 28.4-22.2 36.4a30.3 30.3 0 0 1-15.1 4.2z"/><path fill="#fff" d="M316.1 150.7a21.6 21.6 0 0 1 12.7 4.3 30.9 30.9 0 0 1 8 8.5 62.5 62.5 0 0 1 10.5 31c1.3 16.1 8.9 29.4 19.2 41.2s18.9 15.9 29.8 15.9c6.8 0 14.1-2.1 22.2-6.1l8-4.4c8-2.9 11.9-10.6 13.4-20s2.5-17.4 4.1-25.9c2-10.2 8.2-16.6 18.4-19a24.9 24.9 0 0 1 4.6-.5 20.2 20.2 0 0 1 16.7 9.1c3.8 5.6 3.4 11.4-2.5 18.9s-12 14.3-17.8 21.7c-11.4 14.4-13.7 28.5-9.8 41.7q51.6-36.6 105.6-69.8l36-22.1a3.5 3.5 0 0 1 1.9-.6 3.8 3.8 0 0 1 2.7 6.3l-27.9 30.2Q529 257.5 483.2 301a35.6 35.6 0 0 0 11.3 1.8 44.7 44.7 0 0 0 12.3-1.8c13.5-4 26.6-9.7 39.9-14.3a84.6 84.6 0 0 1 16.3-4.1h2.5c10.4 0 18.9 7.4 20.9 18 1.2 6.5-.9 11.8-6.4 15.7a37.2 37.2 0 0 1-22.2 6.8 50.9 50.9 0 0 1-7.7-.6 174.8 174.8 0 0 0-21.6-1.8 59.4 59.4 0 0 0-21.6 3.6 254.7 254.7 0 0 0-35.4 16.7c-10.1 5.8-14.3 15.9-11.7 27.4 4.5 19.6 13.7 35.7 34.3 42.6q2.8 1 5.7 2.4c7.1 3.3 11.3 8.7 11 16.7s-5.6 13.3-12.5 16.6a11.2 11.2 0 0 1-4.9 1.1c-3.7 0-7.1-2-9.8-4.9-7.3-8-14-16.5-21.1-24.6-5-5.6-9.9-11.3-15.4-16.3-7.1-6.3-14.9-10-23.4-10a32.2 32.2 0 0 0-12.5 2.6c-14 5.8-24.8 15.2-26.4 31.2a108.7 108.7 0 0 0 1.4 27.9c2.1 12.7 5.9 25.1 8.4 37.7a104.5 104.5 0 0 1 1.9 22.3c-.3 12.4-6.2 21.9-17.1 28a20.4 20.4 0 0 1-10.2 2.9c-5.8 0-11-2.9-15-8.6-6.8-9.7-9.4-20.5-6.8-32 2-8.7 5.4-17 8.3-25.5s6.8-17.5 9.2-26.5c3.3-12.7 1.1-24.8-6.3-35.8a40.1 40.1 0 0 0-3-3.9q-43.5 34.8-88.8 67L238.6 445q36.4-35 74.6-67.9a17.2 17.2 0 0 0-.7-2.1c-2.9-8.4-8.7-13.2-17.2-14.3s-14.2-.7-21.2-1.4-13.7.3-16-7 4.8-10.5 9.2-14.1c7.9-6.5 16.5-12.1 24.4-18.6s12.9-12.5 9.9-22.5-11.5-12.3-20.5-13.6c-5.8-.9-11.9-.9-17.2-3a58.4 58.4 0 0 1-16.4-10.6A11.8 11.8 0 0 1 245 255c2-3.7 7.1-6.5 12.1-6.5a15.8 15.8 0 0 1 3.8.5 61.4 61.4 0 0 1 14.8 7.7c7.5 5.1 14.4 11.3 22 16.3a31.8 31.8 0 0 0 17.2 5.3 33 33 0 0 0 12.7-2.7c18.8-8.1 25-23.9 14.6-41.6-5.7-9.5-13.9-17.4-21-26.1s-15.6-17.8-22.1-27.6-2.8-19 4.2-24.9a19.8 19.8 0 0 1 12.8-4.7m0-20a39.7 39.7 0 0 0-25.7 9.4c-15.2 12.8-18.7 34.8-8 51.2a206.4 206.4 0 0 0 16.8 21.4l6.5 7.8 7.4 8.6c4.6 5.2 8.9 10.2 11.9 15.1 1.7 3 2.6 5.8 2.1 7.3s-2.7 3.7-7.4 5.7a11.4 11.4 0 0 1-4.8 1.1 11.8 11.8 0 0 1-6.3-2.1 128.8 128.8 0 0 1-10.5-7.8c-3.5-2.7-7.2-5.5-11.2-8.2-7.2-4.9-13.5-8.2-19.9-10.2a33 33 0 0 0-9.9-1.5c-12.3 0-24.2 6.8-29.7 17a31.9 31.9 0 0 0 6.6 39.2 77.5 77.5 0 0 0 22.4 14.3c6.3 2.6 12.5 3.2 17.5 3.8l4.2.5 1.6.2a6 6 0 0 1-.8.8c-3.6 2.9-7.5 5.8-11.7 8.8s-8.3 6.1-12.5 9.6l-1.6 1.2a40.6 40.6 0 0 0-10 9.4 27.6 27.6 0 0 0-4.1 25 28.5 28.5 0 0 0 17.4 18.4 46.6 46.6 0 0 0 13.9 2.4l2 .2 7.5.4c-18.7 16.7-37.2 33.7-55.1 50.9a20 20 0 0 0-1.6 27.1l28.3 34.3a19.8 19.8 0 0 0 15.4 7.3 20 20 0 0 0 11.6-3.7c22.5-16 45.2-32.8 67.5-50.2a8.3 8.3 0 0 1-.4 1.5 135.7 135.7 0 0 1-5.1 15.2c-1.2 3.2-2.5 6.5-3.6 9.9s-1.4 4-2.2 6.1a206.6 206.6 0 0 0-6.7 21.4c-3.8 16.6-.4 33.3 9.9 48 7.7 10.9 19.1 17.1 31.4 17.1a39.7 39.7 0 0 0 20-5.5c17.1-9.6 26.8-25.6 27.3-44.8a128.8 128.8 0 0 0-2.3-26.6c-1.2-6.2-2.6-12.2-4.1-18s-3.2-13.1-4.2-19.3a90.6 90.6 0 0 1-1.2-22.6c.3-3 .9-9.3 14.1-14.7a13.7 13.7 0 0 1 4.9-1.1c3 0 6.4 1.7 10 4.9a150.1 150.1 0 0 1 12.7 13.4l1.1 1.2c2.8 3.2 5.5 6.5 8.4 9.9 4.1 5 8.4 10 13 15 6.8 7.4 15.5 11.4 24.5 11.4a30.6 30.6 0 0 0 13.5-3.1c14.7-7 23.1-19 23.8-33.7s-7.4-28.6-22.4-35.7a65.6 65.6 0 0 0-7.9-3.2c-7.8-2.7-16.5-8.1-21.1-28.2-.8-3.4.1-4.4 2.2-5.6a231.6 231.6 0 0 1 32.6-15.4 38.5 38.5 0 0 1 14.4-2.3 138.2 138.2 0 0 1 18.9 1.7 95.6 95.6 0 0 0 10.4.7 57 57 0 0 0 33.7-10.4c11.9-8.5 17.2-21.5 14.5-35.8-3.7-20.2-20.4-34.3-40.5-34.3a35.9 35.9 0 0 0-4.7.3 83.1 83.1 0 0 0-13 2.6c13.2-13.5 26.2-27.1 38.8-40.8l27.9-30.1a23.8 23.8 0 0 0-17.4-39.9 24.1 24.1 0 0 0-12.4 3.6l-35.9 22q-24.3 14.9-48.2 30.6c10.2-16.9 4.3-30.5-.5-37.4-7.8-11.2-19.9-17.7-33.1-17.7a40.3 40.3 0 0 0-9.1 1c-17.8 4.2-30 16.8-33.5 34.7-1.2 5.9-2 11.7-2.8 17.3-.5 3.2-.9 6.2-1.4 9.2a15.5 15.5 0 0 1-1.3 4.7l-1.9.9-3.5 1.9-4 2.2c-5.3 2.6-9.7 4-13.2 4s-6.8 0-14.8-9.1-13.4-19.6-14.2-29.6a84.5 84.5 0 0 0-13.8-40.6 53.9 53.9 0 0 0-13-13.5 41.3 41.3 0 0 0-24.4-8.1z"/><path fill="#aec2da" d="M430.1 477.7a31.3 31.3 0 0 1-16-58.1 31.5 31.5 0 0 1 16.1-4.5 31.1 31.1 0 0 1 26.6 14.8 31.4 31.4 0 0 1-26.7 47.8z"/><path fill="#fff" d="M430.2 425.1a21.3 21.3 0 0 1-.1 42.6 21.3 21.3 0 0 1 .1-42.6m0-20a41.2 41.2 0 1 0 35.1 19.5 41.2 41.2 0 0 0-35.1-19.5z"/><path fill="#aec2da" d="M209.6 305.5a28.1 28.1 0 0 1-14.4-52.2 27 27 0 0 1 14.4-4 28.1 28.1 0 0 1 0 56.2z"/><path fill="#fff" d="M209.6 259.3a18.1 18.1 0 0 1 9.3 33.6 18.7 18.7 0 0 1-9.3 2.6 18.1 18.1 0 0 1-15.6-9.1 17.9 17.9 0 0 1 6.3-24.6 18.6 18.6 0 0 1 9.3-2.5m0-20a38 38 0 0 0-32.9 57.2 38.5 38.5 0 0 0 32.9 19 38.1 38.1 0 1 0 0-76.2z"/><path fill="#aec2da" d="M171.8 579.3c-17.3 0-35.6-6.9-55.8-21.1a16.1 16.1 0 0 1-6.4-17.1 15.9 15.9 0 0 1 13.8-12 26.1 26.1 0 0 0 22.6-20.8c.2-1.5.4-3 .5-4.5 1.5-28.5 21.9-48.5 49.7-48.5a65.8 65.8 0 0 1 18.4 2.8 16.4 16.4 0 0 1 7.5 4.9l23.3 27.2a16.4 16.4 0 0 1 3.9 11.8c-1 10.8-7.1 47.8-46.9 69.4l-4 1.9a61.1 61.1 0 0 1-26.6 6z"/><path fill="#fff" d="M196.2 465.3a53.7 53.7 0 0 1 15.5 2.4 5.9 5.9 0 0 1 2.8 1.8l23.3 27.2a6.2 6.2 0 0 1 1.5 4.5c-.8 9.4-6.2 42.1-41.7 61.4l-3.4 1.7a52 52 0 0 1-22.4 5c-13.7 0-30-5.1-50.1-19.3a6.1 6.1 0 0 1 2.8-11 36.1 36.1 0 0 0 31.3-28.7 54.8 54.8 0 0 0 .7-6c1.2-23.8 17.8-39 39.7-39m0-20c-15.9 0-30.6 5.7-41.5 16.2s-17.3 25.3-18.2 41.8a14.5 14.5 0 0 1-.4 3 15.8 15.8 0 0 1-13.8 12.8 26.2 26.2 0 0 0-12.1 47.3c22 15.4 42.1 22.9 61.6 22.9a72.1 72.1 0 0 0 30.8-6.9l4.5-2.2c44.3-24 51.1-65.3 52.1-77.3a26.1 26.1 0 0 0-6.2-19.2l-23.3-27.2a25.4 25.4 0 0 0-12.2-7.9 72.1 72.1 0 0 0-21.3-3.3z"/><path fill="#aec2da" d="M244 505.3a10.2 10.2 0 0 1-7.8-3.7l-25-31.2a10 10 0 0 1 .8-13.4l14.4-14.1a9.8 9.8 0 0 1 6.9-2.8h.6a9.8 9.8 0 0 1 7.1 3.7l27.5 33.4a10 10 0 0 1-1.9 14.5l-16.8 11.8h-.2a9.7 9.7 0 0 1-5.6 1.8z"/><path fill="#fff" d="M233.3 450.1l27.5 33.5-16.7 11.7h-.1l-5-6.3-20-24.9 14.3-14m0-20a19.9 19.9 0 0 0-13.9 5.6l-14.5 14.2a19.9 19.9 0 0 0-1.5 26.7l19.9 24.9 5.1 6.3a19.9 19.9 0 0 0 27 3.9h.1l16.9-11.8a20.2 20.2 0 0 0 3.9-29.1l-27.5-33.4a20.2 20.2 0 0 0-14.4-7.2z"/><g fill="#aec2da"><path d="M426.5 241.1c8-2.9 11.9-10.6 13.4-20s2.5-17.4 4.1-25.9c2-10.2 8.2-16.6 18.4-19 8.3-1.9 16.2 1.4 21.3 8.6 3.8 5.6 3.4 11.4-2.5 18.9s-12 14.3-17.8 21.7c-18.9 23.9-12.9 47 5.4 66.2 10.5 11 23.9 13.5 38 9.4s26.6-9.7 39.9-14.3a84.6 84.6 0 0 1 16.3-4.1c11.5-1.2 21.2 6.4 23.4 17.9 1.2 6.5-.9 11.8-6.4 15.7-9.1 6.5-19.2 7.7-29.9 6.2-14.5-1.9-29.2-3.6-43.2 1.8a254.7 254.7 0 0 0-35.4 16.8c-10.1 5.8-14.3 15.9-11.7 27.4 4.5 19.6 13.7 35.7 34.3 42.6q2.8 1 5.7 2.4c7.1 3.3 11.3 8.7 11 16.7s-5.6 13.3-12.5 16.6-10.9.3-14.7-3.8c-7.3-8-14-16.5-21.1-24.6-5-5.6-9.9-11.3-15.4-16.3-10.4-9.3-22.5-12.9-35.9-7.4s-24.8 15.2-26.4 31.2a108.7 108.7 0 0 0 1.4 27.9c2.1 12.7 5.9 25.1 8.4 37.7a104.5 104.5 0 0 1 1.9 22.3c-.3 12.4-6.2 21.9-17.1 28s-18.9 3.2-25.2-5.7-9.4-20.5-6.8-32c2-8.7 5.4-17 8.3-25.5s6.8-17.5 9.2-26.5c3.3-12.7 1.1-24.8-6.3-35.8s-16.4-13.2-27.7-9.1-18.8 12-25.7 21.1c-4.7 6.1-8.5 12.9-13.8 18.5s-9.9 7.9-15.5 10.9-9.1 1.4-12.2-3-3.4-9-.2-12.8a178.1 178.1 0 0 1 16.3-16.2c9-8.3 18.8-15.8 27.3-24.5 6.8-7.1 9-16.2 5.4-26.1-2.9-8.4-8.7-13.2-17.2-14.3s-14.2-.7-21.2-1.4-13.7.3-16-7 4.8-10.5 9.2-14.1c7.9-6.5 16.5-12.1 24.4-18.6s12.9-12.5 9.9-22.5-11.5-12.3-20.5-13.6c-5.8-.9-11.9-.9-17.2-3a58.4 58.4 0 0 1-16.4-10.6A11.8 11.8 0 0 1 245 255c2.5-4.6 9.8-7.9 15.9-6a61.4 61.4 0 0 1 14.8 7.7c7.5 5.1 14.4 11.3 22 16.3 9.3 6 19.4 7.1 29.9 2.6 18.8-8.1 25-23.9 14.6-41.6-5.7-9.5-13.9-17.4-21-26.1s-15.6-17.8-22.1-27.6-2.8-19 4.2-24.9 17.3-6.4 25.5-.4a30.9 30.9 0 0 1 8 8.5 62.5 62.5 0 0 1 10.5 31c1.3 16.1 8.9 29.4 19.2 41.2 15.3 17.4 31.1 20.2 52 9.8z"/><path d="M441.1 464.6a21.2 21.2 0 0 1-21.9-36.4 21.2 21.2 0 1 1 21.9 36.4zM218.9 292.9a18.1 18.1 0 1 1 6.1-25.1 18 18 0 0 1-6.1 25.1z"/></g><path fill="#55678b" d="M237.8 496.7l-23.3-27.2a5.9 5.9 0 0 0-2.8-1.8c-29.1-8.8-53.7 7.5-55.2 36.6a54.8 54.8 0 0 1-.7 6 62.2 62.2 0 0 1 38.4 54l3.4-1.7c35.5-19.3 40.9-52 41.7-61.4a6.2 6.2 0 0 0-1.5-4.5zm357.4-321.5l-36 22.1A1891.8 1891.8 0 0 0 238.6 445l28.2 34.3a1980.6 1980.6 0 0 0 305.1-268.2l27.9-30.2a3.7 3.7 0 0 0-4.6-5.7zM219 464.1l20 24.9 5.1 6.3 16.7-11.7-27.5-33.5z"/><path d="M244 495.3h.1L239 489z"/><path fill="#aec2da" d="M155.8 510.3a36.1 36.1 0 0 1-31.3 28.7 6.1 6.1 0 0 0-2.8 11c32.5 22.9 55.2 22.3 72.5 14.3a62.2 62.2 0 0 0-38.4-54z"/></symbol><symbol id="instagram" viewBox="0 0 720 720"><path fill="none" d="M364.3 173.2c-103.8 0-188 84.2-188 188a188 188 0 0 0 376 0c0-103.8-84.2-188-188-188zm138.3 188.4c-.1 76.5-62.2 138.5-138.7 138.3a138.5 138.5 0 1 1 138.7-138.7z"/><path d="M364.3 222.9a138.5 138.5 0 1 0-.4 277c76.5.2 138.6-61.8 138.7-138.3v-.4a138.5 138.5 0 0 0-138.3-138.3z"/><path d="M360 .9C161.8.9.9 161.8.9 360S161.8 719.1 360 719.1 719.1 558.2 719.1 360 558.2.9 360 .9zm192.3 360.3a188 188 0 0 1-376 0c0-103.8 84.2-188 188-188s188 84.2 188 188zm-.1-156.3a38.2 38.2 0 1 1 38.2-38.2 38.2 38.2 0 0 1-38.2 38.2z"/></symbol><symbol id="main-logo" viewBox="0 0 720 720"><path d="M711.5 478.6a129.4 129.4 0 0 0-22.1-37 139.3 139.3 0 0 0-32.2-27.5 202.5 202.5 0 0 0-38-18.6 232.3 232.3 0 0 0-39.9-10.4 246.8 246.8 0 0 0-38.1-3.2H236.1L212.5 419h120.1v251.3h208.6a235.6 235.6 0 0 0 38.1-3.3 215.3 215.3 0 0 0 39.9-10.4 196.1 196.1 0 0 0 38-18.5 141.7 141.7 0 0 0 32.2-27.5 128.6 128.6 0 0 0 22.1-37.1c5.5-13.9 8.2-29.8 8.2-47.4s-2.7-33.5-8.2-47.5zm-49.4 91.9a97.1 97.1 0 0 1-30.9 34.9q-19.5 13.6-46.3 20.1c-17.8 4.4-37.2 6.5-58.1 6.5H376.3V419h150.5a247.3 247.3 0 0 1 58.1 6.5q26.9 6.6 46.3 20.2a97.6 97.6 0 0 1 30.9 34.8c7.6 14.1 11.3 25.8 11.3 45.6s-3.7 30.3-11.3 44.4z"/><path d="M376.3 49.7l-188 285.5L.3 49.7v364.2h43.2V199.5h1l143.8 214.4 143.8-214.4h1v162.7h43.2V49.7z"/></symbol><symbol id="motion" viewBox="0 0 720 720"><path fill="#55678b" d="M420.3 487.5a21.9 21.9 0 0 0-7.6-3.3 42.1 42.1 0 0 0-9.6-1.1h-24.8v35.1h24.8a42.2 42.2 0 0 0 9.6-1 24.1 24.1 0 0 0 7.6-3.4 15.5 15.5 0 0 0 5.1-5.7 13 13 0 0 0 1.9-7.3 14.1 14.1 0 0 0-1.9-7.6 15.5 15.5 0 0 0-5.1-5.7z"/><path d="M532.2 393v-.4l-.4.4h.4z"/><path fill="#aec2da" d="M255.2 341.6L203.8 393h46.8l51.4-51.4h-46.8zm93.5 0L297.4 393h46.8l51.4-51.4h-46.9zm94.1 0L391.4 393h46.8l51.4-51.4h-46.8zm89 51.4l.4-.4v-46.9L485 393h46.8z"/><path d="M461.1 183.9l-45 12.9m-125.7 89.3l45-12.8"/><path fill="#55678b" d="M197.1 326h-.2l338.5-96.8-15.7-54.8a19.5 19.5 0 0 0-24.1-13.4l-310 88.6a19.5 19.5 0 0 0-13.4 24.1l15 52.3v211.7a22.1 22.1 0 0 0 22 22.1h317.3a22.1 22.1 0 0 0 22-22.1V326zm306.1-149.9l12.9 45.1v.4h-.4l-45 12.9zm-87.1 20.7l45-12.9-35.3 63.5-45 12.9zm-90.4 25.8l45-12.8-35.3 63.5-45 12.8zm-90 25.7l45-12.8-35.2 63.5-45.1 12.9zM203.8 393l51.4-51.4H302L250.6 393zm144.9-51.4h46.9L344.2 393h-46.8zm-25.2 105.3h-.1v35.4h-7.2v-60.1l31 47.1 31.1-47.1v51.5h-7.2v-26.8h-.1l-23.8 35.4zm110.1 61.7a22.1 22.1 0 0 1-3.7 6.1 20.8 20.8 0 0 1-5.3 4.5 33.8 33.8 0 0 1-12.9 4.8 34.4 34.4 0 0 1-6.2.5h-34.4v-41.4h-19.9l3.9-6.1h50.4a46.9 46.9 0 0 1 6.2.5 37.6 37.6 0 0 1 6.6 1.7 30.7 30.7 0 0 1 6.3 3.1 20.8 20.8 0 0 1 5.3 4.5 22.1 22.1 0 0 1 3.7 6.1 24.4 24.4 0 0 1 0 15.7zM391.4 393l51.4-51.4h46.8L438.2 393zm140.8-.4v.4H485l47.2-47.3z"/><path d="M516.2 221.6l-.1-.4-.3.5.4-.1z"/><path fill="#aec2da" d="M245.5 299l35.3-63.5-45.1 12.8-35.3 63.6 45.1-12.9zm89.9-25.7l35.3-63.5-45 12.8-35.3 63.5 45-12.8zm125.7-89.4l-45 12.9-35.3 63.5 37.5-10.7 7.5-2.2 35.3-63.5zm54.7 37.8l.3-.5-12.9-45.1-32.4 58.5 45-12.9z"/><path fill="#fff" d="M429.9 486.8a20.8 20.8 0 0 0-5.3-4.5 30.7 30.7 0 0 0-6.3-3.1 37.6 37.6 0 0 0-6.6-1.7 46.9 46.9 0 0 0-6.2-.5h-50.4l-3.9 6.1h19.9v41.4h34.4a34.4 34.4 0 0 0 6.2-.5 33.8 33.8 0 0 0 12.9-4.8 20.8 20.8 0 0 0 5.3-4.5 22.1 22.1 0 0 0 3.7-6.1 24.4 24.4 0 0 0 0-15.7 22.1 22.1 0 0 0-3.7-6.1zm-4.5 21.3a15.5 15.5 0 0 1-5.1 5.7 24.1 24.1 0 0 1-7.6 3.4 42.2 42.2 0 0 1-9.6 1h-24.8v-35.1h24.8a42.1 42.1 0 0 1 9.6 1.1 21.9 21.9 0 0 1 7.6 3.3 15.5 15.5 0 0 1 5.1 5.7 14.1 14.1 0 0 1 1.9 7.6 13 13 0 0 1-1.9 7.3z"/><path fill="#fff" d="M371.1 446.9v26.8h7.2v-51.5l-31.1 47.1-31-47.1v60.1h7.2v-35.4h.1l23.7 35.4 23.8-35.4h.1z"/><path fill="#fff" d="M501 160.2a19.6 19.6 0 0 1 18.7 14.2l15.7 54.8L196.9 326h351.6v211.7a22.1 22.1 0 0 1-22 22.1H209.2a22.1 22.1 0 0 1-22-22.1V326l-15-52.3a19.5 19.5 0 0 1 13.4-24.1l310-88.6a20.2 20.2 0 0 1 5.4-.8m0-20a36.4 36.4 0 0 0-10.9 1.6l-310 88.5a39.4 39.4 0 0 0-27.1 48.9l14.2 49.6v208.9a42.1 42.1 0 0 0 42 42.1h317.3a42.1 42.1 0 0 0 42-42.1V326a19.9 19.9 0 0 0-20-20H339.6l201.3-57.5a19.7 19.7 0 0 0 11.9-9.6 20.1 20.1 0 0 0 1.8-15.2l-15.7-54.8a39.6 39.6 0 0 0-37.9-28.7z"/></symbol><symbol id="pintrest" viewBox="0 0 720 720"><path d="M360-.4C161-.4-.4 161-.4 360c0 156.5 99.8 289.6 239 339.5a4.3 4.3 0 0 1-.2-1.1 445.1 445.1 0 0 1-4.5-77.4c1.6-34.5 12.1-66.9 19.5-100.2 8.2-36.6 17.3-72.7 25.7-109.3a15.7 15.7 0 0 0-1-8c-10.3-29.3-12-58.5.4-87.4a66 66 0 0 1 26.7-32.5c32.2-19.5 67.5-.2 68.4 37.4.4 18.9-5.2 36.5-10.3 54.4-6 20.9-13 41.9-17.9 63.3a47.1 47.1 0 0 0 35.7 56.1l3.1.5c29.6 5 52-7.8 70.3-29.3s29.1-51 35.3-80.1a252.7 252.7 0 0 0 5.1-64.9c-2.4-53.8-33.2-93.5-85.6-107-48.9-12.7-95.9-7.2-138 22.2-37.4 26.3-57.3 63.2-61.4 108.4a179 179 0 0 0 1 35.1 74.7 74.7 0 0 0 18.9 41.1 18.7 18.7 0 0 1 4.3 19.1c-2.2 7.2-3.9 14.8-5.9 22.4s-8.3 12.9-18.1 8.6c-29.2-12.9-46.4-36.1-54.8-65.7-18.7-64.7-4.6-122.8 37.7-174.2 34.3-41.5 79.5-64.2 132.1-73.1 43.1-7.2 85.6-5.9 126.7 10.1 60.4 23.6 100.6 65.9 116.6 129.8 5.6 21.9 5.2 44.3 3.1 66.7-3.5 34.9-12.1 68.4-29.1 99.2-23.4 41.9-56.5 71.7-104.2 83.2-17.4 4.3-35.3 6.1-53.1 2.7-26.7-5.4-41.5-14.4-60-36.6-5.6 22.2-11.7 43.7-16.4 65.5-9.7 43.7-30.8 81.5-57.5 116.7a28 28 0 0 1-4.6 5.7l-1.2.8A357 357 0 0 0 360 720.4c199 0 360.4-161.4 360.4-360.4S559-.4 360-.4z"/><path d="M406.8 556.5a2.7 2.7 0 0 0 1.9-.5l-3.3-1.1c.3.7.9 1.5 1.4 1.6z"/></symbol><symbol id="social" viewBox="0 0 720 720"><path fill="#aec2da" d="M554.8 511.5l-4.2-2.9c-20.3-14.3-41.2-29.1-55.3-52.2-11.6-18.8-9.5-42.5 4.9-57.6a45.8 45.8 0 0 1 60.9-5 45.8 45.8 0 0 1 27.9-9.2h.7a43.9 43.9 0 0 1 34.5 17.4 44.8 44.8 0 0 1 8.9 38c-3.2 14-11.1 24.3-18.3 32.5-10.2 11.5-36 32.2-49.4 39.6l-5.5 3.1z"/><path fill="#fff" d="M533.5 394.5a36.1 36.1 0 0 1 25 10.2l2.4 2.7c7.9-8.5 16.9-12.8 28.1-12.8h.5c21.9.2 38.7 21.8 33.8 43.2-2.5 11.1-8.7 19.8-16 28.1-9.2 10.4-34 30.4-46.7 37.5-21.1-14.9-42.8-29.4-56.8-52.2-9.3-15.2-7.5-33.8 3.6-45.4a36 36 0 0 1 26.1-11.3m0-20a55.9 55.9 0 0 0-40.5 17.4c-17.6 18.4-20.2 47-6.3 69.7 15.2 24.9 37 40.3 58.1 55.1l4.2 3 10.3 7.2 11-6c14.3-8 41.1-29.4 52-41.8 7.6-8.6 16.8-20.6 20.5-36.9a55 55 0 0 0-10.7-46.4c-10.5-13.3-25.9-21.1-42.3-21.2h-.8a55.5 55.5 0 0 0-27.9 7.2 55.6 55.6 0 0 0-27.6-7.3z"/><path fill="#55678b" d="M234.8 565.1a10.4 10.4 0 0 1-4.6-1.1 10.2 10.2 0 0 1-5.4-8.9v-54.7c-34.4-15.9-63.3-37.8-83.9-63.6-22.8-28.6-34.9-61.4-34.9-94.9 0-50.5 26.8-97.9 75.6-133.3s111.1-53.7 178.4-53.7 130.6 19.1 178.4 53.7S614 291.4 614 341.9s-26.8 98-75.6 133.4S427.3 529 360 529a343.4 343.4 0 0 1-61-5.4l-58.5 39.8a9.8 9.8 0 0 1-5.7 1.7z"/><path fill="#fff" d="M360 164.9c134.8 0 244 79.2 244 177S494.8 519 360 519a332.9 332.9 0 0 1-63.2-6l-62 42.1V494C163.6 463 116 406.5 116 341.9c0-97.8 109.2-177 244-177m0-20c-69.4 0-134.8 19.7-184.3 55.6-24.7 17.9-44.1 38.9-57.8 62.4-14.6 25-21.9 51.6-21.9 79 0 35.8 12.8 70.8 37.1 101.2 20.4 25.5 48.5 47.3 81.7 63.7v48.3a20 20 0 0 0 10.7 17.7 19.1 19.1 0 0 0 9.3 2.3 20 20 0 0 0 11.3-3.4l55.2-37.5A357.7 357.7 0 0 0 360 539c69.4 0 134.8-19.7 184.3-55.7 24.7-17.9 44.1-38.9 57.8-62.4s21.9-51.5 21.9-79-7.3-54-21.9-79c-13.7-23.5-33.1-44.5-57.8-62.4-49.5-35.9-114.9-55.6-184.3-55.6z"/><path fill="#55678b" d="M360 164.9c-134.8 0-244 79.2-244 177 0 64.6 47.6 121.1 118.8 152.1v61.1l62-42.1a332.9 332.9 0 0 0 63.2 6c134.8 0 244-79.3 244-177.1s-109.2-177-244-177z"/><path fill="#fff" d="M460.4 379a36.3 36.3 0 0 0-6.3-10.6 38.9 38.9 0 0 0-9.2-7.9 64.5 64.5 0 0 0-10.9-5.3 63.5 63.5 0 0 0-11.4-2.9 70 70 0 0 0-10.8-1h-87.2l-6.7 10.7h34.3v71.7h59.6a69.4 69.4 0 0 0 10.8-.9 56.3 56.3 0 0 0 11.4-3 57.3 57.3 0 0 0 10.9-5.2 38.9 38.9 0 0 0 9.2-7.9 38.4 38.4 0 0 0 6.3-37.7zm-14.1 26.2a27.4 27.4 0 0 1-8.8 10 39.8 39.8 0 0 1-13.2 5.8 72.8 72.8 0 0 1-16.6 1.8h-43V362h43a72.8 72.8 0 0 1 16.6 1.8 39.8 39.8 0 0 1 13.2 5.8 27.9 27.9 0 0 1 8.8 9.9 24.4 24.4 0 0 1 3.2 13 22.8 22.8 0 0 1-3.2 12.7z"/><path fill="#fff" d="M364.7 256.4L310.9 338l-53.7-81.6v104.1h12.4v-61.3h.3l41 61.3 41.1-61.3h.3v46.5h12.4v-89.3z"/><path fill="#aec2da" d="M560.9 407.4c8-8.6 17.2-13 28.6-12.8 21.9.2 38.7 21.8 33.8 43.2-2.5 11.1-8.7 19.8-16 28.1-9.2 10.4-34 30.4-46.7 37.5-21.1-14.9-42.8-29.4-56.8-52.2-9.3-15.2-7.5-33.8 3.6-45.4a35.7 35.7 0 0 1 51.1-1.1z"/></symbol><symbol id="youtube" viewBox="0 0 720 720"><path d="M360 .6C161.6.6.6 161.6.6 360s161 359.4 359.4 359.4 359.4-161 359.4-359.4S558.4.6 360 .6zM259 542.3V177.7L555.6 360z"/></symbol><symbol id="motion" viewBox="0 0 669.5 705.8"><path fill="#fff" d="M91.1 690.8a50.7 50.7 0 0 1-50.7-50.6V300l-23.6-82.5A46.6 46.6 0 0 1 48.7 160L549.8 16.8a46.5 46.5 0 0 1 57.5 31.9l25.3 88.7a15.1 15.1 0 0 1-10.3 18.6L178.1 282.9h461.4a15 15 0 0 1 15 15v342.3a50.7 50.7 0 0 1-50.7 50.6z"/><path fill="#fff" d="M562.6 30a31.6 31.6 0 0 1 30.3 22.8l25.3 88.7L71.1 297.9h568.4v342.3a35.6 35.6 0 0 1-35.7 35.6H91.1a35.6 35.6 0 0 1-35.7-35.6V297.9l-24.2-84.6a31.5 31.5 0 0 1 21.6-38.9L553.9 31.2a32.6 32.6 0 0 1 8.7-1.2m24.7 99.2l-.7.2-72.8 20.8 72.8-20.8.7-.2-.2-.7-20.8-72.8 20.8 72.8.2.7M441.2 171l-72.8 20.8 60.6-17.3 12.2-3.5M562.6 0a60.5 60.5 0 0 0-16.9 2.4L44.6 145.6a61.5 61.5 0 0 0-42.2 76l23 80.5v338.1a65.7 65.7 0 0 0 65.7 65.6h512.7a65.7 65.7 0 0 0 65.7-65.6V297.9a30 30 0 0 0-30-30H285.2l341.3-97.5a29.7 29.7 0 0 0 17.9-14.3 30.2 30.2 0 0 0 2.7-22.8l-25.4-88.7a60.6 60.6 0 0 0-22.4-32.4A61.7 61.7 0 0 0 562.6 0z"/><path fill="#55678b" d="M432.2 559a36.4 36.4 0 0 0-12.3-5.4 68.8 68.8 0 0 0-15.5-1.7h-40.1v56.8h40.1a68.8 68.8 0 0 0 15.5-1.7 36.4 36.4 0 0 0 12.3-5.4 25.6 25.6 0 0 0 8.3-9.3 22 22 0 0 0 3-11.8 23.2 23.2 0 0 0-3-12.2 25.6 25.6 0 0 0-8.3-9.3z"/><path d="M613.2 406.3v-.8l-.7.8h.7z"/><path fill="#aec2da" d="M165.3 323.2l-83 83.1H158l83-83.1h-75.7zm151.2 0l-83 83.1h75.7l83.1-83.1h-75.8zm152 0l-83 83.1h75.7l83.1-83.1h-75.8zm144 83.1l.7-.8v-75.7l-76.5 76.5h75.8z"/><path d="M498.2 68.3l-72.8 20.8M222.2 233.5l72.8-20.8"/><path fill="#55678b" d="M71.4 297.9h-.3l547.1-156.4-25.3-88.7a31.5 31.5 0 0 0-39-21.6L52.8 174.4a31.5 31.5 0 0 0-21.6 38.9l24.2 84.6v342.3a35.6 35.6 0 0 0 35.7 35.6h512.7a35.6 35.6 0 0 0 35.7-35.6V297.9zM566.3 55.7l20.8 72.8.2.7-.7.2-72.8 20.8zM425.4 89.1l72.8-20.8-57 102.7-72.8 20.8zm-146.1 41.8l72.8-20.8L295 212.7l-72.8 20.8zm-145.5 41.5l72.8-20.8-57 102.7-72.8 20.8zM82.3 406.3l83-83.1H241l-83 83.1zm234.2-83.1h75.8l-83.1 83.1h-75.7zm-40.7 170.2h-.3v57.1H264v-97.1l50.1 76.2 50.2-76.2v83.4h-11.5v-43.4h-.3l-38.4 57.1zm177.8 99.7a34.9 34.9 0 0 1-5.8 9.9 37.4 37.4 0 0 1-8.6 7.3 53.5 53.5 0 0 1-10.2 5 56.9 56.9 0 0 1-10.6 2.7 62.2 62.2 0 0 1-10.2.9h-55.6v-67h-32l6.3-9.9h81.3a62.2 62.2 0 0 1 10.2.9 56.9 56.9 0 0 1 10.6 2.7 60.2 60.2 0 0 1 10.2 5 40.1 40.1 0 0 1 8.6 7.3 34.9 34.9 0 0 1 5.8 9.9 37.5 37.5 0 0 1 0 25.3zm-68.1-186.8l83-83.1h75.8l-83.1 83.1zm227.7-.8v.8h-76.5l76.5-76.5z"/><path d="M587.3 129.2l-.2-.7-.5.9.7-.2z"/><path fill="#aec2da" d="M149.6 254.3l57-102.7-72.8 20.8-57 102.7 72.8-20.8zM295 212.7l57.1-102.6-72.8 20.8-57.1 102.6 72.8-20.8zM498.2 68.3l-72.8 20.8-57 102.7 60.6-17.3 12.2-3.5 57-102.7zm88.4 61.1l.5-.9-20.8-72.8-52.5 94.5 72.8-20.8z"/><path fill="#fff" d="M447.8 557.9a40.1 40.1 0 0 0-8.6-7.3 60.2 60.2 0 0 0-10.2-5 56.9 56.9 0 0 0-10.6-2.7 62.2 62.2 0 0 0-10.2-.9h-81.3l-6.3 9.9h32v67h55.6a62.2 62.2 0 0 0 10.2-.9 56.9 56.9 0 0 0 10.6-2.7 53.5 53.5 0 0 0 10.2-5 37.4 37.4 0 0 0 8.6-7.3 34.9 34.9 0 0 0 5.8-9.9 37.5 37.5 0 0 0 0-25.3 34.9 34.9 0 0 0-5.8-9.9zm-7.3 34.4a25.6 25.6 0 0 1-8.3 9.3 36.4 36.4 0 0 1-12.3 5.4 68.8 68.8 0 0 1-15.5 1.7h-40.1v-56.8h40.1a68.8 68.8 0 0 1 15.5 1.7 36.4 36.4 0 0 1 12.3 5.4 25.6 25.6 0 0 1 8.3 9.3 23.2 23.2 0 0 1 3 12.2 22 22 0 0 1-3 11.8z"/><path fill="#fff" d="M352.8 493.4v43.4h11.5v-83.4l-50.2 76.2-50.1-76.2v97.1h11.5v-57.1h.3l38.3 57.1 38.4-57.1h.3z"/></symbol><symbol id="social" viewBox="0 0 707.8 577.8"><path fill="#aec2da" d="M187.5 563.1a15.3 15.3 0 0 1-6.9-1.7 14.8 14.8 0 0 1-7.8-13v-71.8c-45.6-21.3-84-50.4-111.3-84.6-30.6-38.3-46.8-82.3-46.8-127.1 0-34.4 9.3-67.7 27.5-99.1 17.4-29.8 42.2-56.5 73.6-79.3 63.8-46.3 148.4-71.8 238.1-71.8S528.2 40.2 592 86.5c31.4 22.8 56.2 49.5 73.6 79.3 18.2 31.4 27.5 64.7 27.5 99.1s-9.7 68.6-28 99.9c20.3 14.2 31.4 40 25.7 64.7-4.3 18.9-14.9 32.8-24.7 43.9-13.5 15.4-48.1 43.1-65.9 53a15.4 15.4 0 0 1-7.2 1.8 14.8 14.8 0 0 1-8.5-2.7l-5.5-3.9c-17.8-12.5-36-25.4-51.8-41.5-52.3 22.9-111.9 35-173.3 35a461.5 461.5 0 0 1-80.8-7.1l-77.3 52.5a14.8 14.8 0 0 1-8.3 2.6z"/><path fill="#fff" d="M353.9 29.5c179.2 0 324.5 105.4 324.5 235.4 0 38.1-12.5 74-34.6 105.8 22.7 6.9 38.2 31.3 32.7 55.5-3.4 14.8-11.7 26.4-21.4 37.4-12.2 13.9-45.1 40.5-62.1 49.9-21.9-15.6-44.5-30.7-62.2-51.2-50.8 24.1-111.6 38.1-176.9 38.1a440.8 440.8 0 0 1-84-8l-82.4 56V467c-94.7-41.1-158-116.2-158-202.1 0-130 145.2-235.4 324.4-235.4m0-29.5A460.6 460.6 0 0 0 219 19.8C177.2 32.6 139.6 51 107.2 74.6s-59.3 52.2-77.7 83.8C9.9 192 0 227.8 0 264.9c0 48.2 17.3 95.3 50 136.2 27 33.9 64.1 62.9 108 84.7v62.6a29.4 29.4 0 0 0 29.5 29.4 28.9 28.9 0 0 0 16.5-5.1l72.5-49.2a473.6 473.6 0 0 0 77.4 6.3c59.8 0 118.2-11.1 170.1-32.3 14.7 13.7 30.8 25.1 46.5 36.1l5.5 3.9a29.6 29.6 0 0 0 17 5.4 30.3 30.3 0 0 0 14.3-3.6c19.3-10.7 55.2-39.6 69.9-56.2 10.3-11.7 22.9-28 28-50.3a75.7 75.7 0 0 0-9.2-56 80.2 80.2 0 0 0-12.2-15.5 210.2 210.2 0 0 0 13.5-31.9 203.6 203.6 0 0 0 10.5-64.5c0-37.1-9.9-72.9-29.5-106.5-18.4-31.6-44.5-59.8-77.7-83.8s-70-42-111.8-54.8A460.6 460.6 0 0 0 353.9 0z"/><path fill="#55678b" d="M353.9 29.5c-179.2 0-324.4 105.4-324.4 235.4 0 85.9 63.3 161 158 202.1v81.4l82.4-56a440.8 440.8 0 0 0 84 8c179.2 0 324.5-105.5 324.5-235.5S533.1 29.5 353.9 29.5z"/><path fill="#fff" d="M487.4 334a49.7 49.7 0 0 0-8.4-14.1 50.6 50.6 0 0 0-12.2-10.4 74.1 74.1 0 0 0-14.4-7.1 84.9 84.9 0 0 0-15.2-3.9 83 83 0 0 0-14.5-1.3H306.8l-8.9 14.1h45.6v95.5h79.2a83 83 0 0 0 14.5-1.3 84.9 84.9 0 0 0 15.2-3.9 79.7 79.7 0 0 0 14.4-7 53.4 53.4 0 0 0 12.2-10.5 49.7 49.7 0 0 0 8.4-14.1 52.2 52.2 0 0 0 0-36zm-18.7 34.9a37.4 37.4 0 0 1-11.8 13.2 51.7 51.7 0 0 1-17.5 7.7 96.5 96.5 0 0 1-22.1 2.5h-57.2v-81h57.2a96.5 96.5 0 0 1 22.1 2.5 51.7 51.7 0 0 1 17.5 7.7 36.6 36.6 0 0 1 11.8 13.2A33.4 33.4 0 0 1 473 352c0 7.5-1.5 11.5-4.3 16.9z"/><path fill="#fff" d="M360.1 171l-71.4 108.5L217.3 171v138.4h16.4v-81.5h.4l54.6 81.5 54.6-81.5h.4v61.9h16.4V171z"/><path fill="#aec2da" d="M593.5 385.8c10.6-11.3 22.8-17.2 38-17 29 .3 51.5 29 45 57.4-3.4 14.8-11.7 26.4-21.4 37.4-12.2 13.9-45.1 40.5-62.1 49.9-28-19.8-56.9-39-75.5-69.4-12.3-20.2-10-44.9 4.9-60.4a47.3 47.3 0 0 1 67.8-1.4z"/></symbol><symbol id="artwork" viewBox="0 0 696.9 613.5"><path fill="#aec2da" d="M441.2 464.1A43.2 43.2 0 0 1 419 384a43.8 43.8 0 0 1 22.3-6.2 43 43 0 0 1 36.6 20.4 43.3 43.3 0 0 1-14.5 59.7 43 43 0 0 1-22.2 6.2z"/><path fill="#fff" d="M441.3 392.8a28.1 28.1 0 0 1 14.3 52.2 27.2 27.2 0 0 1-14.4 4.1 28.1 28.1 0 0 1-14.4-52.2 27.3 27.3 0 0 1 14.5-4.1m0-30a57.9 57.9 0 0 0-50.2 87.3 58.8 58.8 0 0 0 21.5 21.4 57.5 57.5 0 0 0 28.6 7.6 58.6 58.6 0 0 0 29.9-8.3 58.1 58.1 0 0 0-29.8-108z"/><path fill="#aec2da" d="M149.6 236.5a39.6 39.6 0 1 1 20-5.7 38.5 38.5 0 0 1-20 5.7z"/><path fill="#fff" d="M149.7 173.6a23.9 23.9 0 0 1 12.2 44.4 24.2 24.2 0 0 1-12.3 3.5 24 24 0 0 1-12.3-44.5 24.4 24.4 0 0 1 12.4-3.4m0-30a53.7 53.7 0 0 0-46.6 80.9 53.5 53.5 0 0 0 74.3 19.2 53.9 53.9 0 0 0-27.7-100.1z"/><path fill="#aec2da" d="M99.6 598.5c-23.3 0-47.7-9.2-74.8-28.2a23.1 23.1 0 0 1 10.7-41.8 32.3 32.3 0 0 0 28.2-26 37 37 0 0 0 .7-5.7c2-38.7 29.8-65.8 67.5-65.8a87.1 87.1 0 0 1 24.9 3.8 23.8 23.8 0 0 1 10.7 7l30.8 35.9a23.5 23.5 0 0 1 5.5 17c-1.2 14.5-9.4 64.1-62.9 93.1l-5.3 2.6a84.7 84.7 0 0 1-36 8.1z"/><path fill="#fff" d="M131.9 446a68.3 68.3 0 0 1 20.5 3.2 7.7 7.7 0 0 1 3.7 2.4l30.9 35.9a8 8 0 0 1 1.9 5.9c-1.1 12.5-8.2 55.7-55.1 81.2l-4.6 2.2a68.6 68.6 0 0 1-29.6 6.7c-18 0-39.6-6.8-66.2-25.5a8 8 0 0 1 3.7-14.5 47.6 47.6 0 0 0 41.3-38.1 48.9 48.9 0 0 0 1-7.8C81 466.1 103 446 131.9 446m0-30c-21.9 0-42.3 7.9-57.3 22.4s-24 35-25.1 57.7c-.1 1.1-.3 2.3-.5 3.4a17.6 17.6 0 0 1-15.2 14.1 38 38 0 0 0-17.6 68.9c29.7 20.9 56.9 31 83.4 31a99.6 99.6 0 0 0 42.3-9.5c2.1-.9 4.1-2 6.1-3.1 60.1-32.5 69.4-88.5 70.8-104.9a38.7 38.7 0 0 0-9.1-28.1L178.9 432a37.9 37.9 0 0 0-17.8-11.6 101.9 101.9 0 0 0-29.2-4.4z"/><path fill="#aec2da" d="M360.6 565.8c-12.7 0-24.1-6.3-32.1-17.7-11.7-16.8-15.6-35.6-11.3-54.3a236.8 236.8 0 0 1 8.5-27c.9-2.7 1.9-5.5 2.9-8.2 1.4-4.4 3-8.6 4.6-12.8a196.6 196.6 0 0 0 7.2-21.2 40.7 40.7 0 0 0-1.5-26.5c-34.3 27.1-69.6 53.5-104.9 78.6l-11.4 8.1-55.1-66.8 10-9.6c29.4-28.2 59.8-56 90.5-82.8-1.9-1.9-4.3-2.6-7-3-4.7-.6-9.7-.8-14.9-1s-8.3-.4-12.5-.8l-3.1-.2c-7.6-.4-25.4-1.4-31.1-19.6s8.4-28.3 14.4-32.8l2.7-1.9c5.3-4.4 10.8-8.4 16.1-12.3s10.9-8 15.9-12.1c10.1-8.4 9.2-11.3 8.4-14s-2.6-5.6-15-7.5l-6-.7c-6.2-.6-13.2-1.4-20.1-4.2a91.7 91.7 0 0 1-26.2-16.7c-10.9-10-13.5-24.9-6.4-38 5.3-9.8 17.1-16.5 29.3-16.5a30.9 30.9 0 0 1 9.5 1.5c7.4 2.3 14.8 6.2 23.4 12 5 3.4 9.7 7 14.2 10.5s9.8 7.6 14.7 10.8a26 26 0 0 0 14.5 4.7 27.6 27.6 0 0 0 10.9-2.4c6-2.6 13.7-7.2 16.1-14.5s-.9-14-3.8-19c-4.4-7.5-10.5-14.4-17-21.8-3.1-3.5-6.3-7.1-9.4-10.9l-8.9-10.6c-7.3-8.5-14.8-17.3-21.3-27.2-10.9-16.7-7.3-39.4 8.4-52.6a41.4 41.4 0 0 1 26.6-9.8 43.3 43.3 0 0 1 25.6 8.6 60.1 60.1 0 0 1 14.3 15 99.5 99.5 0 0 1 16.4 48.2c1.2 15.7 8.1 30.3 21.6 45.7s22 15.9 28.1 15.9 13.9-2.1 22.6-6.5l5.7-3 4.6-2.5.9-.5 1.1-.4c4-1.5 6.7-6.5 8-14.8.7-4 1.3-8.3 1.9-12.3 1.1-7.3 2.2-14.9 3.6-22.4 3.8-19.3 16.4-32.3 35.7-36.8a43.3 43.3 0 0 1 9.5-1.1c13.6 0 26.1 6.8 34.3 18.5 11.4 16.5 4.3 32.4-3.7 42.7-4.3 5.6-8.8 10.9-13.1 16.1s-7.2 8.4-10.6 12.7a60.9 60.9 0 0 0-9.8 17c38.2-26.4 77.4-52 116.9-76.2l47.5-29.2a19.9 19.9 0 0 1 25 30.5L639.7 120c-28.2 30.4-57.3 60.5-87 89.7l17.2-6.4c6.7-2.6 13.5-5.2 20.5-7.6s15.4-5.1 24.7-6.1l5-.3c21 0 38.4 14.8 42.4 36 2.7 14.6-2.5 27.3-14.6 35.9s-23.7 11.6-37.9 11.6a104 104 0 0 1-12.2-.8c-8.7-1.2-18-2.4-26.6-2.4a64.6 64.6 0 0 0-23.1 3.8 321.6 321.6 0 0 0-44.7 21.3c-7.6 4.3-10.4 11-8.4 19.8 5.8 25.2 16.7 39.2 35.5 45.5a96.2 96.2 0 0 1 9.2 3.8c15.4 7.3 23.8 20.5 23.1 36.3s-9.6 27.4-25 34.8a30.1 30.1 0 0 1-13 3c-8.7 0-17.2-4.1-24-11.4s-11.4-13-16.7-19.4l-11.4-13.4-1.4-1.5c-6-6.8-11.6-13.2-17.7-18.7s-14-9.4-20.9-9.4a26.9 26.9 0 0 0-10.8 2.3c-21.4 8.7-24.9 20.6-25.7 28.8a127.8 127.8 0 0 0 1.7 33c1.4 8.6 3.5 17.2 5.7 26.3 1.9 7.5 3.8 15.3 5.3 23.2a155.5 155.5 0 0 1 2.8 32.7c-.6 21.3-11.3 38.9-30.2 49.6a41.8 41.8 0 0 1-20.9 5.8z"/><path fill="#fff" d="M290.4 30a28.3 28.3 0 0 1 16.7 5.7 43.8 43.8 0 0 1 10.7 11.2 83.7 83.7 0 0 1 13.9 41c1.7 21.4 11.7 38.9 25.3 54.5s25.1 21 39.4 21c9 0 18.7-2.7 29.4-8.1 2.9-1.4 5.8-3.1 10.6-5.7 10.6-3.9 15.7-14.1 17.7-26.5s3.2-22.9 5.4-34.2c2.7-13.5 10.9-22 24.4-25.1a25.4 25.4 0 0 1 6.1-.7c8.6 0 16.5 4.3 21.9 12.1s4.5 15-3.2 25-15.9 18.9-23.6 28.6c-15.1 19.1-18.1 37.7-12.9 55.1q68.3-48.5 139.6-92.3l47.6-29.1a4.2 4.2 0 0 1 2.6-.8c3.8 0 6.7 4.9 3.5 8.3l-36.8 39.9q-56.9 61.4-117.4 118.9a47 47 0 0 0 14.9 2.4 55.2 55.2 0 0 0 16.3-2.5c17.9-5.2 35.1-12.7 52.8-18.8 7-2.4 14.2-4.6 21.5-5.4l3.3-.2c13.8 0 25 9.7 27.6 23.8 1.6 8.6-1.2 15.6-8.5 20.8-9 6.4-18.9 8.9-29.2 8.9a70.9 70.9 0 0 1-10.2-.7c-9.5-1.3-19.1-2.5-28.6-2.5s-19.2 1.2-28.5 4.8a334.4 334.4 0 0 0-46.8 22.3c-13.4 7.7-19 20.9-15.5 36.2 5.9 25.8 18.1 47.2 45.3 56.3a71.9 71.9 0 0 1 7.6 3.2c9.3 4.4 15 11.5 14.5 22s-7.3 17.6-16.5 22a15.7 15.7 0 0 1-6.5 1.5c-4.9 0-9.4-2.7-12.9-6.6-9.7-10.5-18.5-21.8-28-32.5-6.5-7.4-13-14.9-20.3-21.5-9.4-8.3-19.7-13.2-30.9-13.2a43.9 43.9 0 0 0-16.5 3.4c-18.6 7.6-32.9 20.1-34.9 41.3-1.2 12.1-.2 24.7 1.8 36.8 2.8 16.8 7.9 33.2 11.1 49.9a139.5 139.5 0 0 1 2.5 29.5c-.4 16.3-8.2 28.9-22.6 37a27.5 27.5 0 0 1-13.5 3.8c-7.6 0-14.5-3.8-19.8-11.3-9-12.9-12.5-27.2-9-42.4 2.7-11.4 7.1-22.5 10.9-33.7s9.1-23.1 12.2-35c4.4-16.8 1.5-32.8-8.2-47.3a43.5 43.5 0 0 0-4.1-5.1q-57.3 45.9-117.3 88.5l-37.4-45.3q48.2-46.3 98.7-89.8l-.9-2.8c-3.9-11.1-11.5-17.4-22.8-18.8-9.3-1.2-18.7-1.1-28-1.9s-18.2.3-21.2-9.3 6.3-13.9 12.2-18.7c10.5-8.5 21.9-15.9 32.2-24.5s17.1-16.5 13.1-29.8-15.2-16.2-27.1-18c-7.6-1.1-15.7-1.2-22.7-4a76.5 76.5 0 0 1-21.7-13.9c-5.4-5-7.3-12.4-3.3-19.7 2.6-5 9.4-8.7 16.1-8.7a16.7 16.7 0 0 1 4.9.8c6.9 2.2 13.5 6 19.6 10.1 10 6.8 19 15 29.2 21.5a41 41 0 0 0 22.6 7.1 43.1 43.1 0 0 0 16.8-3.6c24.9-10.7 33.1-31.7 19.3-55-7.5-12.5-18.4-23.1-27.7-34.5S276.5 82.2 268 69.2c-7.3-11.2-3.8-25.1 5.5-33a26.1 26.1 0 0 1 16.9-6.2m0-30a55.9 55.9 0 0 0-36.2 13.3A57.1 57.1 0 0 0 235 45.8a54.2 54.2 0 0 0 7.9 39.8c7 10.7 14.8 19.9 22.4 28.8l8.7 10.2c3.2 4 6.5 7.8 9.7 11.4 6 6.9 11.7 13.3 15.4 19.5 2.4 4.1 2.5 6.4 2.4 6.8s-2 2.9-7.7 5.3a12.9 12.9 0 0 1-5 1.2c-.7 0-2.8 0-6.4-2.3s-8.8-6.3-13.6-10-9.6-7.5-15-11.1c-9.8-6.7-18.4-11.1-27.3-13.9a47.1 47.1 0 0 0-14-2.2 50.3 50.3 0 0 0-23.9 6.1 45.7 45.7 0 0 0-9.1 74.4 103.5 103.5 0 0 0 30.6 19.6c8.6 3.5 16.8 4.5 23.5 5.2-3.1 2.4-6.5 4.8-9.9 7.3-5.5 4-11.1 8.2-16.7 12.8l-2 1.5a57.1 57.1 0 0 0-14 13.2 39.8 39.8 0 0 0-5.9 36.1 40.8 40.8 0 0 0 25.1 26.6c7.5 2.8 14.4 3.2 19.4 3.5l2.6.2h1.5c-22.6 20.2-44.9 40.8-66.5 61.6l-20.1 19.3 17.7 21.4 37.3 45.4 17.8 21.6 22.7-16.1c27.1-19.3 54.1-39.3 80.7-59.8l-4.1 11.4c-1.6 4.2-3.3 8.6-4.8 13.1-.9 2.6-1.9 5.3-2.9 8-3.2 9.1-6.5 18.4-8.9 28.7-5.3 23-.6 45.9 13.6 66.3 10.8 15.3 26.9 24.1 44.4 24.1a57.7 57.7 0 0 0 28.3-7.7c23.6-13.4 37.1-35.5 37.8-62.3a165.5 165.5 0 0 0-3.1-35.9c-1.6-8.3-3.5-16.3-5.4-24s-4.2-17.1-5.5-25.2c-1.9-11-2.4-20.8-1.6-29 .4-3.5 1-10.1 16.5-16.4a13.4 13.4 0 0 1 5.1-1.2c3.1 0 6.7 1.9 10.9 5.5a217.8 217.8 0 0 1 16.4 17.5l1.4 1.5c3.7 4.2 7.3 8.6 11.2 13.1 5.4 6.6 11.1 13.3 17.2 19.9 9.7 10.5 22.1 16.3 35 16.3a44.1 44.1 0 0 0 19.4-4.5c9-4.3 16.4-9.9 21.9-16.8a52 52 0 0 0 11.6-30.8 50.7 50.7 0 0 0-8.8-31.7c-5.5-8-13.2-14.3-22.8-18.9a115 115 0 0 0-10.9-4.4c-9.9-3.3-19.9-9.8-25.5-34.6a7.4 7.4 0 0 1-.3-2.5 5 5 0 0 1 1.4-1 313.8 313.8 0 0 1 42.6-20.3c5-1.9 10.7-2.8 17.8-2.8s16 1.1 24.6 2.2a98.8 98.8 0 0 0 14.2 1c17.4 0 33.1-4.8 46.6-14.4 16.9-12 24.4-30.5 20.6-50.8a59.7 59.7 0 0 0-19.5-34.4 57.3 57.3 0 0 0-37.6-13.9 48.7 48.7 0 0 0-6.6.4l-5.7.8q21.8-22.5 42.9-45.3l36.9-39.8a34.9 34.9 0 0 0-43.9-53.5l-47.6 29.2c-17.8 10.9-35.6 22.2-53.3 33.6a39.5 39.5 0 0 0 2.1-9.5c1.4-11.2-1.5-22.3-8.3-32.1-11-15.9-28-25-46.6-25a56.8 56.8 0 0 0-12.9 1.5c-25 5.8-42.1 23.5-47 48.5-1.5 7.9-2.7 15.6-3.8 23.1-.6 4.2-1.1 8.2-1.8 12.1a24 24 0 0 1-.9 4.1l-1.5.8-4.7 2.6-5.1 2.7c-6.4 3.2-11.9 4.9-15.9 4.9-2.2 0-7.4 0-16.8-10.8-11.3-12.9-17-24.6-18-37a113.2 113.2 0 0 0-18.8-55.3 77.1 77.1 0 0 0-18-18.9A58.4 58.4 0 0 0 290.4 0z"/><path fill="#aec2da" d="M141.9 443.2l9.6-9.5 19-18.6 11.7-11.3 57 69.3-13.2 9.3-22.3 15.5-11.6 8.1z"/><path fill="#fff" d="M181 425.9l36.3 44.2-22.1 15.5h-.1l-6.7-8.4-26.4-32.8c6.3-6.2 12.6-12.4 19-18.5m2.5-44.2l-23.4 22.7c-7.3 7-13.4 13-19.2 18.7l-19.2 19 16.9 21.1 26.4 32.9 6.7 8.3 17.5 21.9 23-16h.1c6.8-4.6 14.1-9.7 22.3-15.6L261 476l-20.5-25-36.4-44.2-20.6-25.1z"/><g fill="#aec2da"><path d="M436.4 149.6c10.6-3.9 15.7-14.1 17.7-26.5s3.2-22.9 5.4-34.2c2.7-13.5 10.9-22 24.4-25.1 10.8-2.5 21.4 1.8 28 11.4 5.2 7.4 4.5 15-3.2 25s-15.9 18.9-23.6 28.6c-25 31.6-17 62.2 7.2 87.5 13.9 14.6 31.7 17.9 50.2 12.4s35.1-12.7 52.8-18.8c7-2.4 14.2-4.6 21.5-5.4 15.3-1.7 28.1 8.4 30.9 23.6 1.6 8.6-1.2 15.6-8.5 20.8-11.9 8.5-25.3 10.1-39.4 8.2-19.2-2.6-38.7-4.8-57.1 2.3a334.4 334.4 0 0 0-46.8 22.3c-13.4 7.7-19 20.9-15.5 36.2 5.9 25.8 18.1 47.2 45.3 56.3a71.9 71.9 0 0 1 7.6 3.2c9.3 4.4 15 11.5 14.5 22s-7.3 17.6-16.5 22c-7.6 3.6-14.4.4-19.4-5.1-9.7-10.5-18.5-21.8-28-32.5-6.5-7.4-13-14.9-20.3-21.5-13.8-12.3-29.7-17.1-47.4-9.8s-32.9 20.1-34.9 41.3c-1.2 12.1-.2 24.7 1.8 36.8 2.8 16.8 7.9 33.2 11.1 49.9a139.5 139.5 0 0 1 2.5 29.5c-.4 16.3-8.2 28.9-22.6 37-12.6 7.1-25 4.3-33.3-7.5s-12.5-27.2-9-42.4c2.7-11.4 7.1-22.5 10.9-33.7s9.1-23.1 12.2-35c4.4-16.8 1.5-32.8-8.2-47.3S324.9 363.6 310 369s-24.9 16-34 27.9c-6.2 8.1-11.2 17.1-18.2 24.4s-13.2 10.6-20.5 14.5c-5.7 3.1-12 1.8-16.2-3.9s-4.4-12-.2-17c6.5-7.7 14-14.6 21.5-21.4 11.9-10.9 24.9-20.9 36.1-32.5 9.1-9.3 11.9-21.3 7.2-34.4-3.9-11.1-11.5-17.4-22.8-18.8-9.3-1.2-18.7-1.1-28-1.9s-18.2.3-21.2-9.3 6.3-13.9 12.2-18.7c10.5-8.5 21.9-15.9 32.2-24.5s17.1-16.5 13.1-29.8-15.2-16.2-27.1-18c-7.6-1.1-15.7-1.2-22.7-4a76.5 76.5 0 0 1-21.7-13.9c-5.4-5-7.3-12.4-3.3-19.7s13-10.5 21-7.9 13.5 6 19.6 10.1c10 6.8 19 15 29.2 21.5 12.2 7.9 25.6 9.4 39.4 3.5 24.9-10.7 33.1-31.7 19.3-55-7.5-12.5-18.4-23.1-27.7-34.5S276.5 82.2 268 69.2c-7.3-11.2-3.8-25.1 5.5-33s22.8-8.4 33.6-.5a43.8 43.8 0 0 1 10.7 11.2 83.7 83.7 0 0 1 13.9 41c1.7 21.4 11.7 38.9 25.3 54.5 20.2 23.1 41.2 26.7 68.8 12.9 2.9-1.4 5.8-3.1 10.6-5.7z"/><path d="M455.6 445a28 28 0 1 1 9.5-38.9 28.1 28.1 0 0 1-9.5 38.9zM161.9 218a23.9 23.9 0 0 1-24.6-41 23.9 23.9 0 1 1 24.6 41z"/></g><path fill="#55678b" d="M187 487.5l-30.9-35.9a7.7 7.7 0 0 0-3.7-2.4c-38.5-11.7-71 9.8-73 48.4a48.9 48.9 0 0 1-1 7.8 82.3 82.3 0 0 1 50.8 71.4l4.6-2.2c46.9-25.5 54-68.7 55.1-81.2a8 8 0 0 0-1.9-5.9zm472.4-425l-47.6 29.1a2501 2501 0 0 0-423.9 327.6l37.4 45.3a2621.2 2621.2 0 0 0 403.4-354.6L665.5 70c3.9-4.2-1.3-10.5-6.1-7.5zM162 444.4l26.4 32.9 6.8 8.3 22.1-15.5-36.3-44.2c-6.4 6.1-12.7 12.3-19 18.5z"/><path d="M195.1 485.7h.1l-6.8-8.3z"/><path fill="#aec2da" d="M78.4 505.4a47.6 47.6 0 0 1-41.3 38.1 8 8 0 0 0-3.7 14.5c43 30.2 72.9 29.5 95.8 18.8a82.3 82.3 0 0 0-50.8-71.4z"/></symbol></svg>