<svg xmlns="http://www.w3.org/2000/svg"><symbol id="favicon" viewBox="0 0 720 720"><circle cx="360" cy="360" r="358.3" fill="#54668d"/><path fill="#fff" d="M622 439.6a87.1 87.1 0 0 0-14.9-24.8 93.6 93.6 0 0 0-21.6-18.5 136.3 136.3 0 0 0-25.5-12.4 145.1 145.1 0 0 0-26.8-7 155.4 155.4 0 0 0-25.6-2.2H302.8l-15.9 24.9h80.7v168.7h140a155.4 155.4 0 0 0 25.6-2.2 144.7 144.7 0 0 0 26.8-6.9 136.8 136.8 0 0 0 25.5-12.5 93.2 93.2 0 0 0 21.6-18.4 86.3 86.3 0 0 0 14.9-24.9 95.3 95.3 0 0 0 0-63.8zm-33.2 61.7a66.7 66.7 0 0 1-20.7 23.4 91.8 91.8 0 0 1-31.1 13.6 165.9 165.9 0 0 1-39 4.3H396.9v-143H498a165.7 165.7 0 0 1 39 4.4 91.7 91.7 0 0 1 31.1 13.5 66.7 66.7 0 0 1 20.7 23.4c5.1 9.5 7.6 17.3 7.6 30.6s-2.5 20.4-7.6 29.8z"/><path fill="#fff" d="M396.9 151.7L270.7 343.4 144.5 151.7v244.5h29v-144h.7l96.5 144 96.5-144h.7v109.3h29V151.7z"/></symbol><symbol id="pintrest" viewBox="0 0 720 720"><path d="M360-.4C161-.4-.4 161-.4 360c0 156.5 99.8 289.6 239 339.5a4.3 4.3 0 0 1-.2-1.1 445.1 445.1 0 0 1-4.5-77.4c1.6-34.5 12.1-66.9 19.5-100.2 8.2-36.6 17.3-72.7 25.7-109.3a15.7 15.7 0 0 0-1-8c-10.3-29.3-12-58.5.4-87.4a66 66 0 0 1 26.7-32.5c32.2-19.5 67.5-.2 68.4 37.4.4 18.9-5.2 36.5-10.3 54.4-6 20.9-13 41.9-17.9 63.3a47.1 47.1 0 0 0 35.7 56.1l3.1.5c29.6 5 52-7.8 70.3-29.3s29.1-51 35.3-80.1a252.7 252.7 0 0 0 5.1-64.9c-2.4-53.8-33.2-93.5-85.6-107-48.9-12.7-95.9-7.2-138 22.2-37.4 26.3-57.3 63.2-61.4 108.4a179 179 0 0 0 1 35.1 74.7 74.7 0 0 0 18.9 41.1 18.7 18.7 0 0 1 4.3 19.1c-2.2 7.2-3.9 14.8-5.9 22.4s-8.3 12.9-18.1 8.6c-29.2-12.9-46.4-36.1-54.8-65.7-18.7-64.7-4.6-122.8 37.7-174.2 34.3-41.5 79.5-64.2 132.1-73.1 43.1-7.2 85.6-5.9 126.7 10.1 60.4 23.6 100.6 65.9 116.6 129.8 5.6 21.9 5.2 44.3 3.1 66.7-3.5 34.9-12.1 68.4-29.1 99.2-23.4 41.9-56.5 71.7-104.2 83.2-17.4 4.3-35.3 6.1-53.1 2.7-26.7-5.4-41.5-14.4-60-36.6-5.6 22.2-11.7 43.7-16.4 65.5-9.7 43.7-30.8 81.5-57.5 116.7a28 28 0 0 1-4.6 5.7l-1.2.8A357 357 0 0 0 360 720.4c199 0 360.4-161.4 360.4-360.4S559-.4 360-.4z"/><path d="M406.8 556.5a2.7 2.7 0 0 0 1.9-.5l-3.3-1.1c.3.7.9 1.5 1.4 1.6z"/></symbol><symbol id="instagram" viewBox="0 0 720 720"><path fill="none" d="M364.3 173.2c-103.8 0-188 84.2-188 188a188 188 0 0 0 376 0c0-103.8-84.2-188-188-188zm138.3 188.4c-.1 76.5-62.2 138.5-138.7 138.3a138.5 138.5 0 1 1 138.7-138.7z"/><path d="M364.3 222.9a138.5 138.5 0 1 0-.4 277c76.5.2 138.6-61.8 138.7-138.3v-.4a138.5 138.5 0 0 0-138.3-138.3z"/><path d="M360 .9C161.8.9.9 161.8.9 360S161.8 719.1 360 719.1 719.1 558.2 719.1 360 558.2.9 360 .9zm192.3 360.3a188 188 0 0 1-376 0c0-103.8 84.2-188 188-188s188 84.2 188 188zm-.1-156.3a38.2 38.2 0 1 1 38.2-38.2 38.2 38.2 0 0 1-38.2 38.2z"/></symbol><symbol id="vimeo" viewBox="0 0 720 720"><path d="M.8 384.3v-47.7c.4-2.1 1.2-4.1 1.3-6.1a337.2 337.2 0 0 1 22.4-98.6C84.8 78.5 233-12.9 397.2 2.7c58.2 5.5 112.5 24 160.5 57.5 122 85.1 174.9 202.5 158.6 350.2-5.9 53.2-25.2 102.3-55.1 146.8q-89 132.4-246.6 158.7c-10.1 1.6-20.2 2.7-30.4 4.1h-47.7c-8.8-1.1-17.6-2-26.3-3.3-59.6-8.7-114.1-30.2-162.3-66.2Q29.3 561.8 5 415.5c-1.7-10.4-2.8-20.8-4.2-31.2zM392.3 318c7.4-2.7 13.8-5.6 20.5-7.3 19.3-4.7 33.8 4.9 37.6 24.4 2.6 12.7-.1 24.8-5.7 36-11.8 23.9-24.9 47.2-41.9 67.8a78 78 0 0 1-13.1 12.6c-6.9 5.3-12 4.4-16.4-3a112.7 112.7 0 0 1-9.8-21.5c-13.5-40-21.4-81.2-28.5-122.7-3.6-21.1-7.8-42.2-18.9-61.1-8.6-14.6-20.9-22.7-38.3-20.3a81.8 81.8 0 0 0-16.8 4.5c-18 6.6-33.4 17.7-48.3 29.5-23.9 18.9-45.4 40.3-65.5 63.7 5.7 7.6 11.4 14.9 16.1 21.1 11.8-5.6 22.3-11.4 33.3-15.4 9.2-3.5 14.8-.5 18.6 8.6s8.2 20.8 11.6 31.5q25.3 79.2 50.3 158.8c5.8 18.3 14.7 34.7 28.8 48.1 22.7 21.6 48.4 23.8 73.5 5.6 8.3-6.1 16.6-12.3 24.5-18.9 58.6-49.2 108.4-105.7 142.2-175.2 14.4-29.8 25-60.9 27.3-94.2 3.2-44.1-24.6-73.1-68.6-70.8-35.7 1.8-64.9 17.7-87.8 44.9a109.8 109.8 0 0 0-24.7 53.3z"/></symbol><symbol id="logo" viewBox="0 0 720 720"><path d="M711.5 478.6a129.4 129.4 0 0 0-22.1-37 139.3 139.3 0 0 0-32.2-27.5 202.5 202.5 0 0 0-38-18.6 232.3 232.3 0 0 0-39.9-10.4 246.8 246.8 0 0 0-38.1-3.2H236.1L212.5 419h120.1v251.3h208.6a235.6 235.6 0 0 0 38.1-3.3 215.3 215.3 0 0 0 39.9-10.4 196.1 196.1 0 0 0 38-18.5 141.7 141.7 0 0 0 32.2-27.5 128.6 128.6 0 0 0 22.1-37.1c5.5-13.9 8.2-29.8 8.2-47.4s-2.7-33.5-8.2-47.5zm-49.4 91.9a97.1 97.1 0 0 1-30.9 34.9q-19.5 13.6-46.3 20.1c-17.8 4.4-37.2 6.5-58.1 6.5H376.3V419h150.5a247.3 247.3 0 0 1 58.1 6.5q26.9 6.6 46.3 20.2a97.6 97.6 0 0 1 30.9 34.8c7.6 14.1 11.3 25.8 11.3 45.6s-3.7 30.3-11.3 44.4z"/><path d="M376.3 49.7l-188 285.5L.3 49.7v364.2h43.2V199.5h1l143.8 214.4 143.8-214.4h1v162.7h43.2V49.7z"/></symbol><symbol id="youtube" viewBox="0 0 720 720"><path d="M360 .6C161.6.6.6 161.6.6 360s161 359.4 359.4 359.4 359.4-161 359.4-359.4S558.4.6 360 .6zM259 542.3V177.7L555.6 360z"/></symbol></svg>