<svg xmlns="http://www.w3.org/2000/svg"><symbol id="logo" viewBox="0 0 720 720"><path d="M552.1 450.2c-9.3-6.5-20.2-11.2-32.8-14.3a172.7 172.7 0 0 0-41.2-4.6H371.6v150.8h106.5a172.7 172.7 0 0 0 41.2-4.6c12.6-3.1 23.5-7.8 32.8-14.3a68.9 68.9 0 0 0 21.8-24.6c5.4-10 8-17.5 8-31.5s-2.6-22.3-8-32.3a68.9 68.9 0 0 0-21.8-24.6z"/><path d="M360 2.2C162.4 2.2 2.2 162.4 2.2 360S162.4 717.8 360 717.8 717.8 557.6 717.8 360 557.6 2.2 360 2.2zM136.6 275.8h-.7v151.9h-30.6V169.8l133.1 202.1 133.2-202.1v221.3H341V275.8h-.8L238.4 427.7zm472.3 264.9a90.1 90.1 0 0 1-15.7 26.3 100.9 100.9 0 0 1-22.7 19.4 137.2 137.2 0 0 1-27 13.1 152.4 152.4 0 0 1-28.2 7.4 173.7 173.7 0 0 1-27 2.3H340.6V431.3h-85l16.6-26.3h216.1a173.7 173.7 0 0 1 27 2.3 160.3 160.3 0 0 1 28.2 7.3 143.5 143.5 0 0 1 27 13.2 98.4 98.4 0 0 1 22.7 19.4 90.1 90.1 0 0 1 15.7 26.3c3.9 9.9 5.8 21.1 5.8 33.6s-1.9 23.7-5.8 33.6z"/></symbol><symbol id="youtube" viewBox="0 0 720 720"><path id="youtube" d="M360 .6C161.6.6.6 161.6.6 360s161 359.4 359.4 359.4 359.4-161 359.4-359.4S558.4.6 360 .6zM259 542.3V177.7L555.6 360z"/></symbol><symbol id="pintrest" viewBox="0 0 720 720"><path d="M360-.4C161-.4-.4 161-.4 360c0 156.5 99.8 289.6 239 339.5a4.3 4.3 0 0 1-.2-1.1 445.1 445.1 0 0 1-4.5-77.4c1.6-34.5 12.1-66.9 19.5-100.2 8.2-36.6 17.3-72.7 25.7-109.3a15.7 15.7 0 0 0-1-8c-10.3-29.3-12-58.5.4-87.4a66 66 0 0 1 26.7-32.5c32.2-19.5 67.5-.2 68.4 37.4.4 18.9-5.2 36.5-10.3 54.4-6 20.9-13 41.9-17.9 63.3a47.1 47.1 0 0 0 35.7 56.1l3.1.5c29.6 5 52-7.8 70.3-29.3s29.1-51 35.3-80.1a252.7 252.7 0 0 0 5.1-64.9c-2.4-53.8-33.2-93.5-85.6-107-48.9-12.7-95.9-7.2-138 22.2-37.4 26.3-57.3 63.2-61.4 108.4a179 179 0 0 0 1 35.1 74.7 74.7 0 0 0 18.9 41.1 18.7 18.7 0 0 1 4.3 19.1c-2.2 7.2-3.9 14.8-5.9 22.4s-8.3 12.9-18.1 8.6c-29.2-12.9-46.4-36.1-54.8-65.7-18.7-64.7-4.6-122.8 37.7-174.2 34.3-41.5 79.5-64.2 132.1-73.1 43.1-7.2 85.6-5.9 126.7 10.1 60.4 23.6 100.6 65.9 116.6 129.8 5.6 21.9 5.2 44.3 3.1 66.7-3.5 34.9-12.1 68.4-29.1 99.2-23.4 41.9-56.5 71.7-104.2 83.2-17.4 4.3-35.3 6.1-53.1 2.7-26.7-5.4-41.5-14.4-60-36.6-5.6 22.2-11.7 43.7-16.4 65.5-9.7 43.7-30.8 81.5-57.5 116.7a28 28 0 0 1-4.6 5.7l-1.2.8A357 357 0 0 0 360 720.4c199 0 360.4-161.4 360.4-360.4S559-.4 360-.4z"/><path d="M406.8 556.5a2.7 2.7 0 0 0 1.9-.5l-3.3-1.1c.3.7.9 1.5 1.4 1.6z"/></symbol><symbol id="instagram" viewBox="0 0 720 720"><g id="instagram"><path d="M364.3 222.9a138.5 138.5 0 1 0-.4 277c76.5.2 138.6-61.8 138.7-138.3v-.4a138.5 138.5 0 0 0-138.3-138.3z"/><path d="M360 .9C161.8.9.9 161.8.9 360S161.8 719.1 360 719.1 719.1 558.2 719.1 360 558.2.9 360 .9zm4.3 548.3a188 188 0 0 1-188-188c0-103.8 84.2-188 188-188s188 84.2 188 188a188.2 188.2 0 0 1-188 188zm185.4-359.4a22.1 22.1 0 1 1 22-22.1 22 22 0 0 1-22 22.1z"/></g></symbol><symbol id="youtube" viewBox="0 0 720 720"><path id="youtube" d="M360 .6C161.6.6.6 161.6.6 360s161 359.4 359.4 359.4 359.4-161 359.4-359.4S558.4.6 360 .6zM259 542.3V177.7L555.6 360z"/></symbol><symbol id="pintrest" viewBox="0 0 720 720"><path d="M360-.4C161-.4-.4 161-.4 360c0 156.5 99.8 289.6 239 339.5a4.3 4.3 0 0 1-.2-1.1 445.1 445.1 0 0 1-4.5-77.4c1.6-34.5 12.1-66.9 19.5-100.2 8.2-36.6 17.3-72.7 25.7-109.3a15.7 15.7 0 0 0-1-8c-10.3-29.3-12-58.5.4-87.4a66 66 0 0 1 26.7-32.5c32.2-19.5 67.5-.2 68.4 37.4.4 18.9-5.2 36.5-10.3 54.4-6 20.9-13 41.9-17.9 63.3a47.1 47.1 0 0 0 35.7 56.1l3.1.5c29.6 5 52-7.8 70.3-29.3s29.1-51 35.3-80.1a252.7 252.7 0 0 0 5.1-64.9c-2.4-53.8-33.2-93.5-85.6-107-48.9-12.7-95.9-7.2-138 22.2-37.4 26.3-57.3 63.2-61.4 108.4a179 179 0 0 0 1 35.1 74.7 74.7 0 0 0 18.9 41.1 18.7 18.7 0 0 1 4.3 19.1c-2.2 7.2-3.9 14.8-5.9 22.4s-8.3 12.9-18.1 8.6c-29.2-12.9-46.4-36.1-54.8-65.7-18.7-64.7-4.6-122.8 37.7-174.2 34.3-41.5 79.5-64.2 132.1-73.1 43.1-7.2 85.6-5.9 126.7 10.1 60.4 23.6 100.6 65.9 116.6 129.8 5.6 21.9 5.2 44.3 3.1 66.7-3.5 34.9-12.1 68.4-29.1 99.2-23.4 41.9-56.5 71.7-104.2 83.2-17.4 4.3-35.3 6.1-53.1 2.7-26.7-5.4-41.5-14.4-60-36.6-5.6 22.2-11.7 43.7-16.4 65.5-9.7 43.7-30.8 81.5-57.5 116.7a28 28 0 0 1-4.6 5.7l-1.2.8A357 357 0 0 0 360 720.4c199 0 360.4-161.4 360.4-360.4S559-.4 360-.4z"/><path d="M406.8 556.5a2.7 2.7 0 0 0 1.9-.5l-3.3-1.1c.3.7.9 1.5 1.4 1.6z"/></symbol><symbol id="logo" viewBox="0 0 720 720"><path d="M552.1 450.2c-9.3-6.5-20.2-11.2-32.8-14.3a172.7 172.7 0 0 0-41.2-4.6H371.6v150.8h106.5a172.7 172.7 0 0 0 41.2-4.6c12.6-3.1 23.5-7.8 32.8-14.3a68.9 68.9 0 0 0 21.8-24.6c5.4-10 8-17.5 8-31.5s-2.6-22.3-8-32.3a68.9 68.9 0 0 0-21.8-24.6z"/><path d="M360 2.2C162.4 2.2 2.2 162.4 2.2 360S162.4 717.8 360 717.8 717.8 557.6 717.8 360 557.6 2.2 360 2.2zM136.6 275.8h-.7v151.9h-30.6V169.8l133.1 202.1 133.2-202.1v221.3H341V275.8h-.8L238.4 427.7zm472.3 264.9a90.1 90.1 0 0 1-15.7 26.3 100.9 100.9 0 0 1-22.7 19.4 137.2 137.2 0 0 1-27 13.1 152.4 152.4 0 0 1-28.2 7.4 173.7 173.7 0 0 1-27 2.3H340.6V431.3h-85l16.6-26.3h216.1a173.7 173.7 0 0 1 27 2.3 160.3 160.3 0 0 1 28.2 7.3 143.5 143.5 0 0 1 27 13.2 98.4 98.4 0 0 1 22.7 19.4 90.1 90.1 0 0 1 15.7 26.3c3.9 9.9 5.8 21.1 5.8 33.6s-1.9 23.7-5.8 33.6z"/></symbol><symbol id="instagram" viewBox="0 0 720 720"><g id="instagram"><path d="M364.3 222.9a138.5 138.5 0 1 0-.4 277c76.5.2 138.6-61.8 138.7-138.3v-.4a138.5 138.5 0 0 0-138.3-138.3z"/><path d="M360 .9C161.8.9.9 161.8.9 360S161.8 719.1 360 719.1 719.1 558.2 719.1 360 558.2.9 360 .9zm4.3 548.3a188 188 0 0 1-188-188c0-103.8 84.2-188 188-188s188 84.2 188 188a188.2 188.2 0 0 1-188 188zm185.4-359.4a22.1 22.1 0 1 1 22-22.1 22 22 0 0 1-22 22.1z"/></g></symbol><symbol id="instagram" viewBox="0 0 720 720"><g id="instagram"><path d="M364.3 222.9a138.5 138.5 0 1 0-.4 277c76.5.2 138.6-61.8 138.7-138.3v-.4a138.5 138.5 0 0 0-138.3-138.3z"/><path d="M360 .9C161.8.9.9 161.8.9 360S161.8 719.1 360 719.1 719.1 558.2 719.1 360 558.2.9 360 .9zm4.3 548.3a188 188 0 0 1-188-188c0-103.8 84.2-188 188-188s188 84.2 188 188a188.2 188.2 0 0 1-188 188zm185.4-359.4a22.1 22.1 0 1 1 22-22.1 22 22 0 0 1-22 22.1z"/></g></symbol><symbol id="pintrest" viewBox="0 0 720 720"><path d="M360-.4C161-.4-.4 161-.4 360c0 156.5 99.8 289.6 239 339.5a4.3 4.3 0 0 1-.2-1.1 445.1 445.1 0 0 1-4.5-77.4c1.6-34.5 12.1-66.9 19.5-100.2 8.2-36.6 17.3-72.7 25.7-109.3a15.7 15.7 0 0 0-1-8c-10.3-29.3-12-58.5.4-87.4a66 66 0 0 1 26.7-32.5c32.2-19.5 67.5-.2 68.4 37.4.4 18.9-5.2 36.5-10.3 54.4-6 20.9-13 41.9-17.9 63.3a47.1 47.1 0 0 0 35.7 56.1l3.1.5c29.6 5 52-7.8 70.3-29.3s29.1-51 35.3-80.1a252.7 252.7 0 0 0 5.1-64.9c-2.4-53.8-33.2-93.5-85.6-107-48.9-12.7-95.9-7.2-138 22.2-37.4 26.3-57.3 63.2-61.4 108.4a179 179 0 0 0 1 35.1 74.7 74.7 0 0 0 18.9 41.1 18.7 18.7 0 0 1 4.3 19.1c-2.2 7.2-3.9 14.8-5.9 22.4s-8.3 12.9-18.1 8.6c-29.2-12.9-46.4-36.1-54.8-65.7-18.7-64.7-4.6-122.8 37.7-174.2 34.3-41.5 79.5-64.2 132.1-73.1 43.1-7.2 85.6-5.9 126.7 10.1 60.4 23.6 100.6 65.9 116.6 129.8 5.6 21.9 5.2 44.3 3.1 66.7-3.5 34.9-12.1 68.4-29.1 99.2-23.4 41.9-56.5 71.7-104.2 83.2-17.4 4.3-35.3 6.1-53.1 2.7-26.7-5.4-41.5-14.4-60-36.6-5.6 22.2-11.7 43.7-16.4 65.5-9.7 43.7-30.8 81.5-57.5 116.7a28 28 0 0 1-4.6 5.7l-1.2.8A357 357 0 0 0 360 720.4c199 0 360.4-161.4 360.4-360.4S559-.4 360-.4z"/><path d="M406.8 556.5a2.7 2.7 0 0 0 1.9-.5l-3.3-1.1c.3.7.9 1.5 1.4 1.6z"/></symbol><symbol id="youtube" viewBox="0 0 720 720"><path id="youtube" d="M360 .6C161.6.6.6 161.6.6 360s161 359.4 359.4 359.4 359.4-161 359.4-359.4S558.4.6 360 .6zM259 542.3V177.7L555.6 360z"/></symbol><symbol id="other-art" viewBox="0 0 720 720"><path fill="#fff" d="M419 585.8c13.5-.5 27-3 35.7-16.9l-67.3 9.2c8.9 7.5 20.8 8.2 31.6 7.7zm156.9-372a27.9 27.9 0 0 0-14.1-11.2l21.1 43.4c1.6-11.4-.9-23.2-7-32.2z"/><path d="M245.6 424.5c-20.7 8-36.3 21.7-44.4 42.8-3.1 8.1.1 15.6 7.3 18.1s13.6-.8 16.8-8.9 8.7-15.7 16.4-20.7c4.5-2.9 9.3-5.2 13.9-7.7s6.9-5.9 7.1-9.8c.5-10.3-8.2-17.1-17.1-13.8zm-144-169.1a59.8 59.8 0 0 1 4.9-3.9V247l-4.8-4.1c-3.5-3.1-7.5-6.7-10.1-6.7h-.3c-4.8.5-12.9 8.3-13 12.4s7.5 12.1 12.5 12.9c2.7.5 7-3 10.8-6.1z"/><path fill="#fff" d="M316.9 105.1a55.7 55.7 0 0 0-26.3 7c-14.5 7.9-20.1 16.1-18.4 27.7 11.1-9.6 21.4-16.3 32.1-20.8a85.2 85.2 0 0 1 36-6.8 40 40 0 0 0-23.4-7.1z"/><path d="M360 .6C161.6.6.6 161.6.6 360s161 359.4 359.4 359.4 359.4-161 359.4-359.4S558.4.6 360 .6zm72.7 151.2l1.7-2.1c12-15.9 24.1-31.8 36.6-47.4s36.7-16.4 48.5.1c3 4.1 4.3 9.5 6.4 14.3-.2 4-.5 8-.7 12-5.5 9.6-11 19.2-16.6 28.8-1.1 1.9-2.2 3.8-3.2 5.7q-55 95.4-109.9 191.1c-15.2 26.7-34.8 49.7-55.7 71.8a10.1 10.1 0 0 1-1.7 1.1l-65.7-44.3c10-21.4 18.4-43.3 32.5-62.1 41.7-55.7 83.8-111 125.9-166.4zm29.8 414.7c-9.8 21-27.4 24.4-43.3 25.1h-4.6c-12.1 0-26-2.2-35.5-13.9a2.9 2.9 0 0 1-.5-2.8 2.8 2.8 0 0 1 2.3-1.8l78.7-10.8a3 3 0 0 1 2.7 1.2 2.7 2.7 0 0 1 .2 3zM272.4 147.3a2.6 2.6 0 0 1-1.9.7h-.8a2.9 2.9 0 0 1-2-1.9c-4.8-16.8 1.4-28.8 20.2-39a61.3 61.3 0 0 1 33.5-7.4 43.5 43.5 0 0 1 29.2 14.1 2.9 2.9 0 0 1-2.5 4.8c-27.4-3.2-50 5.4-75.7 28.7zM72.6 248.6c.2-7.4 11.2-17.2 18.2-18 5.1-.6 10 3.8 14.8 8a67 67 0 0 0 5.5 4.6 3 3 0 0 1 1.2 2.4v7.5a2.6 2.6 0 0 1-1.3 2.3 67.6 67.6 0 0 0-5.7 4.4c-4.5 3.7-9.2 7.5-13.9 7.5H90c-7-1.2-17.6-11.4-17.4-18.7zm70.7 190.7c-4.6-2.2-9.4-4.5-13.9-7.1-25.4-14.3-41.2-40-42.2-68.7a79.1 79.1 0 0 1 35.9-69.1c20.7-13.7 27.4-28.1 23.9-51.4-2.7-18.1-.8-31 5.8-40.5s17.5-15.8 35.7-20.9c19.9-5.5 32.8-17.3 40.5-37.2 14.1-35.9 40.1-60.1 71.3-66.3s65.2 6.3 92.2 34.4a14.5 14.5 0 0 0 1.7 1.8 41.3 41.3 0 0 1 5.2 5.8 83.3 83.3 0 0 0 23.3 23.3l-3.4 4.7a90.7 90.7 0 0 1-24.7-24.7 33.6 33.6 0 0 0-4.4-5c-.6-.6-1.3-1.2-1.9-1.9-25.6-26.7-57.3-38.6-86.8-32.8s-53.8 28.7-67.1 62.8c-8.5 21.7-22.6 34.6-44.3 40.7-16.9 4.7-27 10.4-32.6 18.5s-7.3 19.9-4.8 36.5c3.8 25.5-3.9 42-26.5 56.9A73.4 73.4 0 0 0 93 363.3c.9 26.7 15.6 50.6 39.2 64 4.4 2.4 9.1 4.6 13.6 6.8s7.5 3.5 11.2 5.5a101.7 101.7 0 0 1 13.1 8.3c-1.1 1.6-2.1 3.3-3 4.9a101.1 101.1 0 0 0-12.8-8.2zm155.2 110.9c-18.4 23.7-41.3 42.2-69.9 53.6-19.7 7.8-40 11.5-61.2 8.1-6.5-1.1-9.4-6.3-5.1-10.9 15.2-16.6 13.7-35.9 10.6-55.9-1.9-12.6-3.4-25.3-4.1-38.1-.9-15.2 2.6-29.4 9.2-42.7l3-5.6 1.9-3.2c11.4-18.4 25-34.8 43.8-46.2C237 403 248 398.8 260 397.7a11 11 0 0 1 6.6 1.8c20 13.3 39.9 26.5 59.5 40.3 2.9 2 4.7 6.7 5.4 10.5 1.3 7 1.4 14.2 1.8 18.3-2.7 27.9-12.8 49.8-26.6 70.2-1.4 2.2-2.9 4.3-4.4 6.3zm295.3 24.9c-7.5 7.6-18.4 12-30 12h-.1c-11.8 0-22.1-3.9-29.2-11.1a30 30 0 0 1-8.9-21.9c.2-18.4 15.9-32 37.2-32.3s39.3 14.1 39.7 32.1a29.4 29.4 0 0 1-8.7 21.2zm-6-250.7c-31.4 34-18.3 63.8-1.4 88.4 5.5 7.9 14.6 23.4 14.6 38.3a42.1 42.1 0 0 1-15.4 32.7c-11.3 9.4-26.5 13.2-41.8 10.4-31.1-5.6-37.3-1.4-44 29.6-.6 3.2-1.3 6.5-1.9 9.7-1.7 9-3.4 18.4-6.9 27-13 32.2-44.8 52.9-81.1 52.9h-1c-25.7 0-47.9-10.2-66-30.2-11.5-12.7-20.9-22-30.1-27.5l3.8-4.4c9.5 5.9 19.1 15.3 30.5 28 17.2 19 38.2 28.5 62.6 28.3h.2c33.9 0 63.6-19.3 75.8-49.3 3.2-8.1 4.9-17.2 6.6-26 .6-3.2 1.2-6.5 1.9-9.8 7.3-34.1 16.3-40.2 50.6-34 13.6 2.5 27.2-.9 37.1-9.2a36.3 36.3 0 0 0 13.3-28.3c.1-13.4-8.4-27.7-13.5-35.1-17.1-24.9-32.4-58.3 1.8-95.5a90.1 90.1 0 0 0 19.7-90.1 96.1 96.1 0 0 0-73.2-65 79.1 79.1 0 0 0-8.5-1.3l3.1-5.4c2.2.3 4.4.6 6.5 1.1a104.2 104.2 0 0 1 49.5 25 102.8 102.8 0 0 1 28.1 43.9 96.1 96.1 0 0 1-20.9 95.8zm-33.4-127.2a2.7 2.7 0 0 1 2.5-1.3c9.2.6 17.7 5.8 23.7 14.7 8.6 12.5 10.8 29.7 6 44.8a3 3 0 0 1-2.5 2h-.2a2.9 2.9 0 0 1-2.6-1.6L554.2 200a2.6 2.6 0 0 1 .2-2.8z"/><path d="M563.6 527.5h-.7c-18.1.3-31.4 11.5-31.6 26.7a24.8 24.8 0 0 0 7.2 17.8c6.1 6 15 9.4 25.2 9.4h.1c10.1-.1 19.5-3.8 25.9-10.3a24 24 0 0 0 7.1-17c-.3-14.8-15.2-26.6-33.2-26.6zm12.3-313.7c6.1 9 8.6 20.8 7 32.2l-21.1-43.4a27.9 27.9 0 0 1 14.1 11.2zM454.7 568.9c-8.7 13.9-22.2 16.4-35.7 16.9-10.8.5-22.7-.2-31.6-7.7zM304.3 119c-10.7 4.5-21 11.2-32.1 20.8-1.7-11.6 3.9-19.8 18.4-27.7a55.7 55.7 0 0 1 26.3-7 40 40 0 0 1 23.4 7.1 85.2 85.2 0 0 0-36 6.8z"/><path fill="none" d="M250.2 558.8c-18.6 6.4-36.7 4.1-49.5-6.5s-18.6-28-15.8-47.6c2.4-16.9.3-29.8-6.9-40.4-6.6 13.3-10.1 27.5-9.2 42.7.7 12.8 2.2 25.5 4.1 38.1 3.1 20 4.6 39.3-10.6 55.9-4.3 4.6-1.4 9.8 5.1 10.9 21.2 3.4 41.5-.3 61.2-8.1 28.6-11.4 51.5-29.9 69.9-53.6-12.7-2.3-27.6 1.4-48.3 8.6z"/><path fill="#fff" d="M248.4 553.4c-16.7 5.7-32.8 3.7-44-5.5s-16.4-24.8-13.9-42.4c2.8-19.6-.1-34.7-9.5-46.8l-3 5.6c7.2 10.6 9.3 23.5 6.9 40.4-2.8 19.6 2.9 37 15.8 47.6s30.9 12.9 49.5 6.5c20.7-7.2 35.6-10.9 48.3-8.6l3.8-5.1a50 50 0 0 0-11.7-1.3c-11.8 0-25.1 3.6-42.2 9.6z"/></symbol><symbol id="logo" viewBox="0 0 720 720"><path d="M552.1 450.2c-9.3-6.5-20.2-11.2-32.8-14.3a172.7 172.7 0 0 0-41.2-4.6H371.6v150.8h106.5a172.7 172.7 0 0 0 41.2-4.6c12.6-3.1 23.5-7.8 32.8-14.3a68.9 68.9 0 0 0 21.8-24.6c5.4-10 8-17.5 8-31.5s-2.6-22.3-8-32.3a68.9 68.9 0 0 0-21.8-24.6z"/><path d="M360 2.2C162.4 2.2 2.2 162.4 2.2 360S162.4 717.8 360 717.8 717.8 557.6 717.8 360 557.6 2.2 360 2.2zM136.6 275.8h-.7v151.9h-30.6V169.8l133.1 202.1 133.2-202.1v221.3H341V275.8h-.8L238.4 427.7zm472.3 264.9a90.1 90.1 0 0 1-15.7 26.3 100.9 100.9 0 0 1-22.7 19.4 137.2 137.2 0 0 1-27 13.1 152.4 152.4 0 0 1-28.2 7.4 173.7 173.7 0 0 1-27 2.3H340.6V431.3h-85l16.6-26.3h216.1a173.7 173.7 0 0 1 27 2.3 160.3 160.3 0 0 1 28.2 7.3 143.5 143.5 0 0 1 27 13.2 98.4 98.4 0 0 1 22.7 19.4 90.1 90.1 0 0 1 15.7 26.3c3.9 9.9 5.8 21.1 5.8 33.6s-1.9 23.7-5.8 33.6z"/></symbol><symbol id="instagram" viewBox="0 0 720 720"><g id="instagram"><path d="M364.3 222.9a138.5 138.5 0 1 0-.4 277c76.5.2 138.6-61.8 138.7-138.3v-.4a138.5 138.5 0 0 0-138.3-138.3z"/><path d="M360 .9C161.8.9.9 161.8.9 360S161.8 719.1 360 719.1 719.1 558.2 719.1 360 558.2.9 360 .9zm4.3 548.3a188 188 0 0 1-188-188c0-103.8 84.2-188 188-188s188 84.2 188 188a188.2 188.2 0 0 1-188 188zm185.4-359.4a22.1 22.1 0 1 1 22-22.1 22 22 0 0 1-22 22.1z"/></g></symbol><symbol id="youtube" viewBox="0 0 720 720"><path id="youtube" d="M360 .6C161.6.6.6 161.6.6 360s161 359.4 359.4 359.4 359.4-161 359.4-359.4S558.4.6 360 .6zM259 542.3V177.7L555.6 360z"/></symbol><symbol id="pintrest" viewBox="0 0 720 720"><path d="M360-.4C161-.4-.4 161-.4 360c0 156.5 99.8 289.6 239 339.5a4.3 4.3 0 0 1-.2-1.1 445.1 445.1 0 0 1-4.5-77.4c1.6-34.5 12.1-66.9 19.5-100.2 8.2-36.6 17.3-72.7 25.7-109.3a15.7 15.7 0 0 0-1-8c-10.3-29.3-12-58.5.4-87.4a66 66 0 0 1 26.7-32.5c32.2-19.5 67.5-.2 68.4 37.4.4 18.9-5.2 36.5-10.3 54.4-6 20.9-13 41.9-17.9 63.3a47.1 47.1 0 0 0 35.7 56.1l3.1.5c29.6 5 52-7.8 70.3-29.3s29.1-51 35.3-80.1a252.7 252.7 0 0 0 5.1-64.9c-2.4-53.8-33.2-93.5-85.6-107-48.9-12.7-95.9-7.2-138 22.2-37.4 26.3-57.3 63.2-61.4 108.4a179 179 0 0 0 1 35.1 74.7 74.7 0 0 0 18.9 41.1 18.7 18.7 0 0 1 4.3 19.1c-2.2 7.2-3.9 14.8-5.9 22.4s-8.3 12.9-18.1 8.6c-29.2-12.9-46.4-36.1-54.8-65.7-18.7-64.7-4.6-122.8 37.7-174.2 34.3-41.5 79.5-64.2 132.1-73.1 43.1-7.2 85.6-5.9 126.7 10.1 60.4 23.6 100.6 65.9 116.6 129.8 5.6 21.9 5.2 44.3 3.1 66.7-3.5 34.9-12.1 68.4-29.1 99.2-23.4 41.9-56.5 71.7-104.2 83.2-17.4 4.3-35.3 6.1-53.1 2.7-26.7-5.4-41.5-14.4-60-36.6-5.6 22.2-11.7 43.7-16.4 65.5-9.7 43.7-30.8 81.5-57.5 116.7a28 28 0 0 1-4.6 5.7l-1.2.8A357 357 0 0 0 360 720.4c199 0 360.4-161.4 360.4-360.4S559-.4 360-.4z"/><path d="M406.8 556.5a2.7 2.7 0 0 0 1.9-.5l-3.3-1.1c.3.7.9 1.5 1.4 1.6z"/></symbol><symbol id="other-art" viewBox="0 0 720 720"><path fill="#fff" d="M419 585.8c13.5-.5 27-3 35.7-16.9l-67.3 9.2c8.9 7.5 20.8 8.2 31.6 7.7zm156.9-372a27.9 27.9 0 0 0-14.1-11.2l21.1 43.4c1.6-11.4-.9-23.2-7-32.2z"/><path d="M245.6 424.5c-20.7 8-36.3 21.7-44.4 42.8-3.1 8.1.1 15.6 7.3 18.1s13.6-.8 16.8-8.9 8.7-15.7 16.4-20.7c4.5-2.9 9.3-5.2 13.9-7.7s6.9-5.9 7.1-9.8c.5-10.3-8.2-17.1-17.1-13.8zm-144-169.1a59.8 59.8 0 0 1 4.9-3.9V247l-4.8-4.1c-3.5-3.1-7.5-6.7-10.1-6.7h-.3c-4.8.5-12.9 8.3-13 12.4s7.5 12.1 12.5 12.9c2.7.5 7-3 10.8-6.1z"/><path fill="#fff" d="M316.9 105.1a55.7 55.7 0 0 0-26.3 7c-14.5 7.9-20.1 16.1-18.4 27.7 11.1-9.6 21.4-16.3 32.1-20.8a85.2 85.2 0 0 1 36-6.8 40 40 0 0 0-23.4-7.1z"/><path d="M360 .6C161.6.6.6 161.6.6 360s161 359.4 359.4 359.4 359.4-161 359.4-359.4S558.4.6 360 .6zm72.7 151.2l1.7-2.1c12-15.9 24.1-31.8 36.6-47.4s36.7-16.4 48.5.1c3 4.1 4.3 9.5 6.4 14.3-.2 4-.5 8-.7 12-5.5 9.6-11 19.2-16.6 28.8-1.1 1.9-2.2 3.8-3.2 5.7q-55 95.4-109.9 191.1c-15.2 26.7-34.8 49.7-55.7 71.8a10.1 10.1 0 0 1-1.7 1.1l-65.7-44.3c10-21.4 18.4-43.3 32.5-62.1 41.7-55.7 83.8-111 125.9-166.4zm29.8 414.7c-9.8 21-27.4 24.4-43.3 25.1h-4.6c-12.1 0-26-2.2-35.5-13.9a2.9 2.9 0 0 1-.5-2.8 2.8 2.8 0 0 1 2.3-1.8l78.7-10.8a3 3 0 0 1 2.7 1.2 2.7 2.7 0 0 1 .2 3zM272.4 147.3a2.6 2.6 0 0 1-1.9.7h-.8a2.9 2.9 0 0 1-2-1.9c-4.8-16.8 1.4-28.8 20.2-39a61.3 61.3 0 0 1 33.5-7.4 43.5 43.5 0 0 1 29.2 14.1 2.9 2.9 0 0 1-2.5 4.8c-27.4-3.2-50 5.4-75.7 28.7zM72.6 248.6c.2-7.4 11.2-17.2 18.2-18 5.1-.6 10 3.8 14.8 8a67 67 0 0 0 5.5 4.6 3 3 0 0 1 1.2 2.4v7.5a2.6 2.6 0 0 1-1.3 2.3 67.6 67.6 0 0 0-5.7 4.4c-4.5 3.7-9.2 7.5-13.9 7.5H90c-7-1.2-17.6-11.4-17.4-18.7zm70.7 190.7c-4.6-2.2-9.4-4.5-13.9-7.1-25.4-14.3-41.2-40-42.2-68.7a79.1 79.1 0 0 1 35.9-69.1c20.7-13.7 27.4-28.1 23.9-51.4-2.7-18.1-.8-31 5.8-40.5s17.5-15.8 35.7-20.9c19.9-5.5 32.8-17.3 40.5-37.2 14.1-35.9 40.1-60.1 71.3-66.3s65.2 6.3 92.2 34.4a14.5 14.5 0 0 0 1.7 1.8 41.3 41.3 0 0 1 5.2 5.8 83.3 83.3 0 0 0 23.3 23.3l-3.4 4.7a90.7 90.7 0 0 1-24.7-24.7 33.6 33.6 0 0 0-4.4-5c-.6-.6-1.3-1.2-1.9-1.9-25.6-26.7-57.3-38.6-86.8-32.8s-53.8 28.7-67.1 62.8c-8.5 21.7-22.6 34.6-44.3 40.7-16.9 4.7-27 10.4-32.6 18.5s-7.3 19.9-4.8 36.5c3.8 25.5-3.9 42-26.5 56.9A73.4 73.4 0 0 0 93 363.3c.9 26.7 15.6 50.6 39.2 64 4.4 2.4 9.1 4.6 13.6 6.8s7.5 3.5 11.2 5.5a101.7 101.7 0 0 1 13.1 8.3c-1.1 1.6-2.1 3.3-3 4.9a101.1 101.1 0 0 0-12.8-8.2zm155.2 110.9c-18.4 23.7-41.3 42.2-69.9 53.6-19.7 7.8-40 11.5-61.2 8.1-6.5-1.1-9.4-6.3-5.1-10.9 15.2-16.6 13.7-35.9 10.6-55.9-1.9-12.6-3.4-25.3-4.1-38.1-.9-15.2 2.6-29.4 9.2-42.7l3-5.6 1.9-3.2c11.4-18.4 25-34.8 43.8-46.2C237 403 248 398.8 260 397.7a11 11 0 0 1 6.6 1.8c20 13.3 39.9 26.5 59.5 40.3 2.9 2 4.7 6.7 5.4 10.5 1.3 7 1.4 14.2 1.8 18.3-2.7 27.9-12.8 49.8-26.6 70.2-1.4 2.2-2.9 4.3-4.4 6.3zm295.3 24.9c-7.5 7.6-18.4 12-30 12h-.1c-11.8 0-22.1-3.9-29.2-11.1a30 30 0 0 1-8.9-21.9c.2-18.4 15.9-32 37.2-32.3s39.3 14.1 39.7 32.1a29.4 29.4 0 0 1-8.7 21.2zm-6-250.7c-31.4 34-18.3 63.8-1.4 88.4 5.5 7.9 14.6 23.4 14.6 38.3a42.1 42.1 0 0 1-15.4 32.7c-11.3 9.4-26.5 13.2-41.8 10.4-31.1-5.6-37.3-1.4-44 29.6-.6 3.2-1.3 6.5-1.9 9.7-1.7 9-3.4 18.4-6.9 27-13 32.2-44.8 52.9-81.1 52.9h-1c-25.7 0-47.9-10.2-66-30.2-11.5-12.7-20.9-22-30.1-27.5l3.8-4.4c9.5 5.9 19.1 15.3 30.5 28 17.2 19 38.2 28.5 62.6 28.3h.2c33.9 0 63.6-19.3 75.8-49.3 3.2-8.1 4.9-17.2 6.6-26 .6-3.2 1.2-6.5 1.9-9.8 7.3-34.1 16.3-40.2 50.6-34 13.6 2.5 27.2-.9 37.1-9.2a36.3 36.3 0 0 0 13.3-28.3c.1-13.4-8.4-27.7-13.5-35.1-17.1-24.9-32.4-58.3 1.8-95.5a90.1 90.1 0 0 0 19.7-90.1 96.1 96.1 0 0 0-73.2-65 79.1 79.1 0 0 0-8.5-1.3l3.1-5.4c2.2.3 4.4.6 6.5 1.1a104.2 104.2 0 0 1 49.5 25 102.8 102.8 0 0 1 28.1 43.9 96.1 96.1 0 0 1-20.9 95.8zm-33.4-127.2a2.7 2.7 0 0 1 2.5-1.3c9.2.6 17.7 5.8 23.7 14.7 8.6 12.5 10.8 29.7 6 44.8a3 3 0 0 1-2.5 2h-.2a2.9 2.9 0 0 1-2.6-1.6L554.2 200a2.6 2.6 0 0 1 .2-2.8z"/><path d="M563.6 527.5h-.7c-18.1.3-31.4 11.5-31.6 26.7a24.8 24.8 0 0 0 7.2 17.8c6.1 6 15 9.4 25.2 9.4h.1c10.1-.1 19.5-3.8 25.9-10.3a24 24 0 0 0 7.1-17c-.3-14.8-15.2-26.6-33.2-26.6zm12.3-313.7c6.1 9 8.6 20.8 7 32.2l-21.1-43.4a27.9 27.9 0 0 1 14.1 11.2zM454.7 568.9c-8.7 13.9-22.2 16.4-35.7 16.9-10.8.5-22.7-.2-31.6-7.7zM304.3 119c-10.7 4.5-21 11.2-32.1 20.8-1.7-11.6 3.9-19.8 18.4-27.7a55.7 55.7 0 0 1 26.3-7 40 40 0 0 1 23.4 7.1 85.2 85.2 0 0 0-36 6.8z"/><path fill="none" d="M250.2 558.8c-18.6 6.4-36.7 4.1-49.5-6.5s-18.6-28-15.8-47.6c2.4-16.9.3-29.8-6.9-40.4-6.6 13.3-10.1 27.5-9.2 42.7.7 12.8 2.2 25.5 4.1 38.1 3.1 20 4.6 39.3-10.6 55.9-4.3 4.6-1.4 9.8 5.1 10.9 21.2 3.4 41.5-.3 61.2-8.1 28.6-11.4 51.5-29.9 69.9-53.6-12.7-2.3-27.6 1.4-48.3 8.6z"/><path fill="#fff" d="M248.4 553.4c-16.7 5.7-32.8 3.7-44-5.5s-16.4-24.8-13.9-42.4c2.8-19.6-.1-34.7-9.5-46.8l-3 5.6c7.2 10.6 9.3 23.5 6.9 40.4-2.8 19.6 2.9 37 15.8 47.6s30.9 12.9 49.5 6.5c20.7-7.2 35.6-10.9 48.3-8.6l3.8-5.1a50 50 0 0 0-11.7-1.3c-11.8 0-25.1 3.6-42.2 9.6z"/></symbol><symbol id="logo" viewBox="0 0 720 720"><path d="M552.1 450.2c-9.3-6.5-20.2-11.2-32.8-14.3a172.7 172.7 0 0 0-41.2-4.6H371.6v150.8h106.5a172.7 172.7 0 0 0 41.2-4.6c12.6-3.1 23.5-7.8 32.8-14.3a68.9 68.9 0 0 0 21.8-24.6c5.4-10 8-17.5 8-31.5s-2.6-22.3-8-32.3a68.9 68.9 0 0 0-21.8-24.6z"/><path d="M360 2.2C162.4 2.2 2.2 162.4 2.2 360S162.4 717.8 360 717.8 717.8 557.6 717.8 360 557.6 2.2 360 2.2zM136.6 275.8h-.7v151.9h-30.6V169.8l133.1 202.1 133.2-202.1v221.3H341V275.8h-.8L238.4 427.7zm472.3 264.9a90.1 90.1 0 0 1-15.7 26.3 100.9 100.9 0 0 1-22.7 19.4 137.2 137.2 0 0 1-27 13.1 152.4 152.4 0 0 1-28.2 7.4 173.7 173.7 0 0 1-27 2.3H340.6V431.3h-85l16.6-26.3h216.1a173.7 173.7 0 0 1 27 2.3 160.3 160.3 0 0 1 28.2 7.3 143.5 143.5 0 0 1 27 13.2 98.4 98.4 0 0 1 22.7 19.4 90.1 90.1 0 0 1 15.7 26.3c3.9 9.9 5.8 21.1 5.8 33.6s-1.9 23.7-5.8 33.6z"/></symbol></svg>