<svg xmlns="http://www.w3.org/2000/svg" width="960" height="960" viewBox="0 0 720 720"><path d="M711.5 478.6a129.4 129.4 0 0 0-22.1-37 139.3 139.3 0 0 0-32.2-27.5 202.5 202.5 0 0 0-38-18.6 232.3 232.3 0 0 0-39.9-10.4 246.8 246.8 0 0 0-38.1-3.2H236.1L212.5 419h120.1v251.3h208.6a235.6 235.6 0 0 0 38.1-3.3 215.3 215.3 0 0 0 39.9-10.4 196.1 196.1 0 0 0 38-18.5 141.7 141.7 0 0 0 32.2-27.5 128.6 128.6 0 0 0 22.1-37.1c5.5-13.9 8.2-29.8 8.2-47.4s-2.7-33.5-8.2-47.5zm-49.4 91.9a97.1 97.1 0 0 1-30.9 34.9q-19.5 13.6-46.3 20.1c-17.8 4.4-37.2 6.5-58.1 6.5H376.3V419h150.5a247.3 247.3 0 0 1 58.1 6.5q26.9 6.6 46.3 20.2a97.6 97.6 0 0 1 30.9 34.8c7.6 14.1 11.3 25.8 11.3 45.6s-3.7 30.3-11.3 44.4z"/><path d="M376.3 49.7l-188 285.5L.3 49.7v364.2h43.2V199.5h1l143.8 214.4 143.8-214.4h1v162.7h43.2V49.7z"/></svg>