<svg height="7.3in" viewBox="0 0 705.8 528.6" width="9.8in" xmlns="http://www.w3.org/2000/svg"><path d="m176.6 122.1 58 33.5-.3.2c-16.4 9.6-16.3 25.1.3 34.7s43.4 9.6 60.1.1h.2l57.3 33 .6-203.1z" fill="#808080" stroke="#939598" stroke-miterlimit="10" stroke-width=".67"/><path d="m352.9 20.3h-.1l-.6 203.1.7.4 58-33.4c-16.7-9.7-16.7-25.3 0-34.9s43.7-9.6 60.4 0l58-33.5z" fill="#bcbec0"/><path d="m222 152.5-.2 20.2 16.3 15.4 3.2-16.9z" fill="#939598"/><path d="m471.3 135.3 58-33.5-176.4-101.8-176.3 101.8 58 33.5h-.3c-16.4 9.7-16.3 25.2.3 34.7s43.4 9.7 60.1.2c0-.1.1-.1.2-.2l58 33.5 58-33.5c-16.7-9.6-16.7-25.2 0-34.8s43.7-9.5 60.4.1z" fill="#e0e7ef"/><path d="m176.6 101.8v20.3l32 18.4 5.3-16.9z" fill="#939598" stroke="#939598" stroke-miterlimit="10" stroke-width=".67"/><g fill="#bcbec0"><path d="m352.9 203.6v20.3l58-33.4v-20.4z"/><path d="m471.3 135.3v20.3l58-33.5v-20.3z"/><path d="m353 223.6v-20.3l-17.6 10.1-40.5-23.4c-16.7 9.5-43.5 9.5-60.1-.1s-17.5-44.6-17.5-44.6l-40.6-23.5-176.4 101.8 176.4 101.8 58-33.5c16.6 9.6 43.7 9.6 60.3 0 8.2-4.7 12.3-10.8 12.5-17h.1v-21.1l-9.8 5a26.1 26.1 0 0 0 -2.8-1.7z"/></g><path d="m295 236.7 58-33.4-58.1-33.6c-16.7 9.5-43.5 9.4-60.1-.1s-16.6-25.1-.2-34.7l-57.9-33.5-176.4 101.9 176.4 101.8 58-33.5c16.6 9.6 43.7 9.6 60.3 0s16.7-25.2 0-34.9z" fill="#87a2c3"/><path d="m.3 203.3v20.3l176.4 101.8v-20.3z" fill="#939598" stroke="#939598" stroke-miterlimit="10" stroke-width=".67"/><path d="m528.8 122.7-176.3 101.8 58 33.5c16.6-9.6 43.7-9.6 60.3 0s16.7 25.2 0 34.8l58 33.5 176.4-101.8z" fill="#939598" stroke="#939598" stroke-miterlimit="10" stroke-width=".67"/><path d="m528.8 102.4-58 33.5c-16.6-9.7-43.7-9.7-60.3 0s-16.7 25.2 0 34.8l-58 33.5 58 33.5c16.6-9.7 43.7-9.7 60.3 0s16.7 25.2 0 34.8l58 33.5 176.4-101.8z" fill="#87a2c3"/><path d="m352.5 204.2v20.3l58 33.5v-20.3z" fill="#939598" stroke="#939598" stroke-miterlimit="10" stroke-width=".67"/><path d="m470.8 272.5v20.3l58 33.5v-20.3z" fill="#939598" stroke="#939598" stroke-miterlimit="10" stroke-width=".67"/><path d="m705.2 204.2v20.3l-176.4 101.8v-20.3z" fill="#bcbec0"/><path d="m487.1 355.5-.4 24.1-14.6-6.9z" fill="#bcbec0"/><path d="m474.6 372.4c16.7-9.6 16.7-25.2 0-34.8s-43.7-9.7-60.3 0l-58-33.5-58 33.5c16.7 9.6 16.7 25.2 0 34.8s-43.7 9.6-60.4 0l-58 33.5 176.4 101.8 176.3-101.8z" fill="#e0e7ef"/><path d="m179.9 405.9v20.3l176.4 101.8v-20.3z" fill="#939598" stroke="#939598" stroke-miterlimit="10" stroke-width=".67"/><path d="m532.6 405.9v20.3l-176.3 101.8v-20.3z" fill="#bcbec0"/><path d="m298.3 337.6v20.3s5.7 2.1 8.4 7.3a15.2 15.2 0 0 0 1.4-18.8 25.4 25.4 0 0 0 -9.8-8.8z" fill="#939598"/></svg>